<svg width="420" height="468" viewBox="0 0 420 468" fill="none" xmlns="http://www.w3.org/2000/svg">
<path d="M16.9313 55.2835C17.2215 55.5305 18.1451 56.7429 18.6005 57.2177C17.7032 57.0219 15.8837 54.3934 16.9313 55.2835ZM91.0009 79.4117C90.5375 79.0945 90.0741 78.7774 89.6107 78.4602C90.5831 79.6711 92.0486 81.1562 92.9168 82.3106C93.0583 82.4998 92.3646 82.3024 92.724 82.7281C93.0837 83.1538 93.4023 82.7231 93.9855 83.288C94.6386 83.9229 97.1477 87.262 98.1175 88.3278C101.746 92.3126 105.602 96.1551 109.05 100.317C105.034 96.4303 108.495 100.873 109.664 101.922C109.925 102.153 110.613 101.46 114.169 105.784C116.429 108.532 113.197 107.023 117.682 110.967C115.359 106.922 118.306 110.304 120.72 112.942C121.137 113.397 124.355 117.197 125.857 118.804C126.371 119.354 127.517 119.865 128.194 120.598C128.66 121.103 128.799 121.676 129.492 122.425C132.716 125.919 135.858 129.382 138.971 132.987C136.133 131.795 140.015 134.986 140.117 135.194C140.61 136.276 137.105 132.527 138.295 134.186C140.221 136.268 142.147 138.35 144.073 140.433C142.637 138.594 146.955 141.985 147.301 143.013C147.872 141.911 155.19 153.302 156.838 154.557C157.182 154.817 155.755 152.371 159.86 157.331C160.304 157.869 159.868 157.907 160.136 158.157C160.297 158.307 162.01 158.548 162.496 160.009C162.674 160.543 159.926 158.579 164.985 163.768C163.9 160.866 172.152 170.825 173.53 172.784C173.326 172.329 173.122 171.874 172.917 171.419C174.183 173.441 174.753 173.499 175.091 173.907C176.455 175.551 178.127 177.992 179.482 179.447C181.067 181.15 181.597 180.685 183.205 182.885C182.891 182.302 182.576 181.72 182.262 181.137C183.486 182.555 184.71 183.973 185.934 185.391C182.341 182.789 186.526 186.117 186.773 186.362C187.169 186.751 186.353 186.415 187.008 187.072C187.077 187.138 187.252 186.795 188.237 187.83C190.293 189.994 189.642 189.945 190.483 190.873C190.562 190.957 190.534 190.442 192.037 192C196.816 196.952 191.83 192.141 191.62 191.974C191.345 191.756 191.914 194.415 188.366 189.749C189.564 191.31 189.25 191.857 189.387 192.031C189.508 192.185 191.843 194.656 191.983 194.782C193.251 195.888 192.573 194.521 192.845 194.715C193.067 194.873 195.407 198.275 196.964 198.166C197.429 200.382 195.444 198.017 193.118 195.69C192.624 195.489 194.867 198.324 194.995 198.465C198.107 201.925 197.079 199.384 198.203 199.742C198.793 199.93 199.586 201.767 199.039 199.905C201.928 202.987 199.855 201.406 199.984 201.657C200.181 202.034 201.347 202.973 201.447 203.132C201.593 203.365 200.747 202.857 201.386 203.722C201.494 203.864 203.018 204.814 201.709 203C203.643 205.257 203.795 204.791 203.831 206.114C206.406 206.552 204.111 207.859 204.582 208.52C205.836 210.274 206.368 208.96 206.49 209.003C207.307 209.317 210.948 214.022 212.066 214.992C210.996 215.174 208.915 211.501 208.166 210.934C205.671 209.043 210.721 214.463 208.371 213.573C209.233 214.058 210.094 214.542 210.955 215.027C211.551 216.799 209.683 215.204 212.972 218.458C213.952 218.592 210.714 216.097 211.628 216.36C212.166 216.516 214.003 218.465 214.154 218.4C214.329 218.314 212.546 216.663 213.015 216.753C214.035 216.956 219.496 223.919 214.75 219.148C216.011 220.535 215.735 222.082 217.109 223.033C217.998 223.647 215.318 218.105 221.015 224.913C220.706 225.445 218.515 222.391 218.418 222.348C218.278 222.29 217.748 223.675 217.778 223.806C217.895 224.257 224.477 230.524 225.263 232.391C225.324 231.317 229.941 237.392 230.667 237.853C230.862 237.974 230.659 237.048 230.853 237.191C232.055 238.088 234.093 241.603 235.31 242.99C236.672 244.542 236.798 244.078 236.874 244.164C237.465 244.855 236.776 244.498 237.148 244.911C237.71 245.534 241.522 249.86 241.758 250.037C241.828 250.088 241.542 249.08 242.447 249.957C242.604 250.108 242.105 250.371 244.769 252.982C247.977 256.127 243.194 250.212 244.865 251.215C246.184 253.902 246.722 253.292 247.197 253.916C247.36 254.132 248.195 256.088 249.688 257.685C248.556 256.592 247.425 255.5 246.294 254.408C247.235 255.635 249.347 257.763 250.095 258.799C250.46 259.304 249.699 259.302 250.61 260.293C250.806 260.501 252.586 260.425 249.77 258.215C249.947 257.677 250.831 259.139 251.455 259.625C251.549 259.698 252.47 259.495 252.755 260.576C252.821 260.837 249.305 260.503 255.073 264.331C255.259 264.454 254.98 263.696 255.167 263.811C255.295 263.89 256.349 265.244 256.507 265.356C256.67 265.47 256.361 264.636 256.562 264.764C257.598 265.421 257.669 267.44 256.115 265.564C256.54 266.276 256.964 266.988 257.389 267.7C257.534 266.399 258.447 268.467 259.222 269.284C264.187 274.52 261.431 270.502 262.505 271.205C264.231 272.335 261.968 272.321 264.321 274.187C264.539 274.359 262.675 271.222 267.048 276.688C266.338 275.94 265.628 275.191 264.918 274.442C264.612 275.517 267.456 277.169 267.627 277.339C269.558 279.294 268.064 278.142 271.15 280.847C271.426 281.089 271.782 281.834 272.389 282.335C274.902 284.414 269.76 278.975 269.908 278.567C269.983 278.369 275.327 284.386 275.445 284.651C275.936 285.788 272.878 282.054 273.127 283.065C273.222 283.431 281.154 291.723 282.55 293.562C284.16 295.685 284.006 297.431 285.088 296.481C284.538 297.984 285.697 297.831 285.917 298.09C288.565 301.232 288.559 301.247 291.014 303.776C291.555 304.334 291.675 305.109 291.913 305.265C292.052 305.355 292.194 304.826 292.823 305.314C293.695 305.995 297.72 311.179 297.856 311.711C297.992 312.242 295.926 309.728 296.005 310.441C297.547 312.219 299.132 313.828 300.683 315.62C301.326 316.365 300.771 316.184 301.05 316.504C301.169 316.641 303.631 318.996 303.615 318.817C303.576 318.398 296.438 310.708 298.665 312.421C299.095 312.751 299.853 314.602 300.261 313.832C306.388 320.928 312.515 328.023 318.642 335.118C314.587 331.522 310.944 326.648 307.131 322.491C306.609 321.921 304.92 319.924 304.825 320.437C307.952 324.076 312.098 328.368 314.976 331.974C315.068 332.089 314.43 331.935 314.755 332.385C315.363 333.226 318.055 335.325 318.317 335.849C318.355 335.945 316.712 334.85 316.869 335.491C317.273 337.135 318.842 336.234 319.685 337.202C320.336 337.952 324.157 343.485 325.67 344.359C327.279 345.287 322.633 340.479 323.313 340.531C326.687 343.577 329.371 347.32 332.27 350.458C332.321 350.513 332.159 349.78 332.835 350.454C334.01 351.628 333.912 352.302 334.389 352.958C334.905 353.665 337.019 355.905 337.152 356.339C337.168 356.395 336.365 356.278 336.291 356.218C335.235 355.363 335.418 354.558 335.343 354.462C335.055 354.103 334.562 353.941 334.294 353.62C333.853 353.09 333.777 352.649 333.185 351.958C332.777 351.482 332.841 352.238 332.452 351.775C332.311 351.603 331.491 349.123 330.546 349.672C330.249 349.846 343.009 364.693 344.518 365.967C343.492 364.633 342.466 363.299 341.44 361.965C343.484 364.709 346.856 367.183 346.11 368.243C354.479 377.711 362.849 387.179 371.219 396.647C372.647 398.397 371.216 398.02 373.873 400.623C373.424 399.737 372.976 398.85 372.527 397.964C373.663 399.5 379.035 406.008 380.072 406.911C380.206 407.028 380.917 406.719 382.372 408.243C383.663 409.597 383.454 410.188 384.044 411.002C384.54 411.684 385.277 412.289 385.421 412.494C385.531 412.653 385.331 412.934 385.594 413.315C386.429 414.516 386.349 413.007 386.502 414.807C386.236 414.574 385.971 414.341 385.706 414.108C386.759 415.516 387.991 417.627 386.085 415.87C385.757 415.569 386.254 415.634 386.033 415.388C377.326 405.791 383.771 413.911 387.183 416.95C387.603 418.14 392.191 422.804 392.266 423.029C392.365 423.346 391.33 422.772 392.063 424.085C392.216 424.362 398.258 430.681 395.678 428.769C395.145 428.375 392.448 425.165 391.759 424.427C392.586 426.878 397.4 430.042 397.791 430.533C399.362 432.519 393.887 427.515 397.603 431.828C400.461 435.145 398.223 431.632 399.565 432.689C400.319 433.283 403.07 437.471 403.705 436.719C404.919 437.914 403.87 437.519 403.983 437.7C404.096 437.875 406.548 440.166 407.12 441.111C407.189 441.226 406.535 441.256 406.595 441.385C406.72 441.629 408.95 443.96 409.069 444.028C409.146 444.069 408.962 443.201 409.253 443.364C409.592 443.555 411.588 445.932 411.796 445.974C412.101 446.026 409.446 443.262 410.242 443.405C411.329 444.801 413.498 446.72 414.574 447.319C414.298 447.183 413.142 445.921 412.775 445.452C413.502 445.175 415.952 447.915 414.684 447.365C415.447 447.752 415.205 447.237 415.722 447.377C415.856 447.416 416.626 448.249 416.866 448.328C416.903 448.332 416.325 447.278 416.591 447.354C417.073 447.491 419.329 450.091 419.465 450.347C419.847 451.069 417.793 449.143 417.409 449.173C417.352 449.18 418.5 451.356 418.485 451.419C418.155 451.903 416.685 449.654 416.507 450.222C416.865 450.783 417.223 451.344 417.582 451.904C415.503 450.367 412.569 446.704 411.323 446.2C413.963 448.875 416.575 451.812 415.581 452.695C415.163 453.067 413.836 452.081 413.772 452.223C413.553 452.741 415.467 454.044 415.503 454.124C415.525 454.195 415.524 454.239 415.502 454.258C415.502 454.258 415.502 454.258 415.502 454.258C415.28 454.458 412.977 452.217 412.769 452.188C412.409 452.149 412.622 453.876 412.457 454.022C412.39 454.014 410.689 452.474 410.918 453.303C411.151 454.143 412.48 455.635 412.497 455.714C412.579 456.153 410.085 453.694 409.914 453.709C409.825 453.714 410.763 455.395 410.709 455.517C410.648 455.634 409.496 454.752 408.831 454.594C408.337 454.474 408.988 455.53 408.811 455.4C408.686 455.306 406.483 452.847 406.336 452.76C406.119 452.63 406.38 453.436 406.241 453.409C406.042 453.373 405.421 452.497 405.419 452.685C405.418 452.826 407.299 456.695 407.045 456.887C406.612 457.214 404.61 453.125 405.746 457.582C405.755 457.613 406.531 458.249 406.539 458.278C406.656 458.996 404.082 457.035 406.759 459.856C401.418 454.933 405.553 459.73 404.16 459.543C403.624 459.469 401.642 457.481 401.595 457.506C401.446 458.006 402.3 458.44 402.341 458.811C402.362 459.017 400.336 457.465 400.487 458.089C400.565 458.411 402.386 460.354 402.437 460.456C402.926 461.433 401.831 460.68 401.833 460.989C401.833 461.196 402.899 462.398 402.909 462.446C402.915 462.53 401.044 461.28 400.594 461.072C400.252 460.916 400.943 462.038 400.733 461.902C399.471 461.084 398.149 458.118 399.097 461.269C399.155 461.462 399.933 462.276 399.943 462.312C400.112 463.096 398.701 461.576 398.211 461.518C397.368 461.418 399.593 463.426 397.643 461.846C398.613 463.474 399.317 464.235 400.848 465.785C396.609 461.494 394.108 460.882 398.606 465.833C397.201 464.235 396.75 464.958 396.315 464.496C396.045 464.207 394.588 461.369 394.175 463.642C394.124 463.926 395.592 465.126 394.853 465.002C391.935 461.577 394.568 465.13 394.525 465.174C393.686 465.85 386.995 457.087 385.642 455.764C384.071 454.229 382.139 453.348 381.82 452.994C380.772 451.829 381.961 452.508 381.845 452.142C381.724 451.773 378.132 449.01 378.017 448.814C377.575 448.05 378.54 448.361 378.499 448.277C378.017 447.273 373.72 443.088 372.688 441.763C372.476 442.022 374.706 444.542 372.906 443.335C370.811 441.93 371.802 440.851 371.807 440.761C364.306 432.435 356.806 424.109 349.305 415.784C348.821 416.406 354.154 421.464 354.189 421.656C354.393 422.789 346.129 413.576 345.318 412.263C345.964 413.233 346.61 414.203 347.256 415.173C345.276 414.305 343.225 410.288 341.028 408.433C340.318 407.834 341.243 409.378 341.201 409.367C340.252 408.829 339.341 407.416 340.517 408.028C338.498 406.448 339.11 406.394 337.842 404.928C337.777 404.853 338.065 405.712 336.929 404.672C336.397 404.184 333.836 401.335 333.259 401.164C333.019 401.096 333.279 403.475 334.334 402.85C336.683 406.341 335.631 403.474 336.692 404.697C336.854 404.886 335.973 404.909 338.933 407.73C337.514 407.961 335.049 403.865 334.402 403.365C333.069 402.332 337.175 407.835 338.715 408.138C337.621 408.333 338.945 408.584 339.935 409.744C341.019 411.013 340.324 410.66 340.926 411.333C342.571 413.174 342.383 411.967 343.296 413.883C343.353 411.163 345.808 416.311 346.511 417.821C344.708 415.956 342.904 414.09 341.101 412.225C341.127 412.4 341.154 412.576 341.18 412.751C340.734 412.234 340.287 411.717 339.841 411.199C339.984 411.218 340.127 411.237 340.27 411.256C337.463 409.043 337.397 407.947 337.211 407.728C334.798 404.925 331.94 401.753 329.443 398.971C329.068 398.554 328.873 399.247 326.495 395.888C325.737 394.817 326.912 395.416 325.871 394.364C323.678 393.85 324.465 393.189 324.099 392.78C323.044 391.607 322.163 391.103 322.063 390.996C320.723 389.58 318.855 387.422 317.389 385.861C317.358 385.835 317.809 386.927 316.967 385.815C316.671 385.424 314.999 381.038 312.03 378.558C312.611 379.375 313.192 380.192 313.773 381.009C313.109 380.031 307.308 374.213 308.313 376.007C308.93 377.106 311.746 378.612 311.188 379.557C309.596 377.316 299.168 366.413 298.564 365.378C298.481 365.234 299.401 365.75 299.284 365.554C299.192 365.403 296.824 362.888 296.614 362.459C296.489 362.205 297.664 363.201 297.672 363.027C297.664 362.888 294.889 359.582 294.408 359.683C295.243 360.357 297.122 362.671 295.812 361.749C295.645 361.63 295.153 360.672 294.948 360.529C293.047 359.193 297.662 364.142 298.359 364.923C295.115 362.125 291.197 356.808 287.642 353.382C286.576 351.665 290.017 355.214 288.73 353.343C286.061 349.463 287.536 352.746 287.405 352.669C286.364 352.045 285.147 347.826 284.062 348.799C283.093 347.393 283.596 347.677 281.857 346.028C281.992 346.329 282.127 346.63 282.262 346.931C279.861 345.522 277.692 339.923 278.094 340.127C279.174 340.678 280.624 343.306 280.803 343.481C281.068 343.74 282.851 343.512 284.571 347.404C286.416 347.974 280.783 342.188 283.74 344.467C282 342.697 275.696 334.649 274.391 333.848C274.231 333.755 274.042 335.023 272.731 332.812C272.11 331.762 274.047 333.9 273.848 333.343C273.236 331.628 257.595 314.884 254.659 311.672C254.469 311.462 254.766 311.334 254.579 311.13C254.002 310.501 251.585 308.496 250.67 307.267C252.361 309.998 248.224 305.46 247.227 304.257C245.713 302.43 246.212 302.178 245.613 301.34C243.304 298.108 238.262 294.415 237.103 291.334C236.331 292.253 233.992 286.999 232.335 285.141C231.039 283.685 228.562 282.106 229.965 284.384C227.756 281.844 225.223 279.357 223.059 277.057C222.701 276.677 223.443 276.977 222.824 276.335C222.766 276.279 222.435 276.426 221.897 275.882C217.455 271.387 220.052 273.183 219.423 272.16C219.071 271.588 218.789 271.185 218.565 270.906C221.074 273.597 224.011 276.663 224.777 277.501C224.696 276.272 219.218 271.533 217.963 269.831C217.92 269.772 218.402 269.681 218.355 269.624C218.353 269.622 218.352 269.621 218.351 269.62C217.848 269.012 214.375 265.379 214.695 266.482C214.781 266.778 216.327 268.498 218.193 270.507C217.628 270.018 217.649 270.744 217.546 270.66C216.312 269.634 214.052 266.433 213.175 265.365C212.975 265.122 212.766 265.34 212.731 265.301C211.942 264.322 212.926 264.131 211.406 263.765C210.683 261.359 214.372 266.828 214.582 266.021C214.743 265.4 204.829 254.797 204.23 255.394C204.264 255.296 204.214 255.073 204.035 254.683C203.639 253.819 200.873 250.873 200.291 250.459C200.19 250.392 199.612 250.974 199.509 250.871C199.251 250.612 196.429 246.511 194.836 245.463C195.416 246.28 195.997 247.097 196.577 247.915C192.552 243.447 192.992 244.301 194.149 245.955C194.215 246.031 194.257 246.124 194.318 246.197C195.222 247.473 196.423 249.071 196.395 249.137C196.288 249.386 189.366 241.889 191.243 242.841C191.503 242.975 194.406 246.712 193.247 244.611C193.045 244.244 190.903 242.092 190.841 241.934C190.424 240.876 195.242 245.447 195.121 244.468C193.647 243.632 192.479 241.909 191.144 240.631C190.537 240.05 190.094 240.171 190.019 240.099C188.906 239.021 189.806 239.378 189.453 239.002C189.263 238.801 186.545 237.147 187.869 236.731C180.469 229.886 185.323 235.286 189.492 239.819C187.849 238.679 185.465 235.693 184.241 234.491C183.802 234.06 183.732 234.613 182.976 233.897C181.419 232.425 174.965 224.519 173.275 222.467C174.476 223.581 174.498 222.919 173.633 222.004C172.768 221.089 173.019 222.285 172.806 222.146C172.579 221.996 168.846 217.409 168.13 216.731C171.268 219.891 170.937 218.839 168.45 215.999C168.913 216.317 169.376 216.635 169.838 216.952C168.222 215.431 165.632 211.504 164.623 210.692C164.464 210.565 164.659 211.358 164.57 211.287C163.699 210.562 161.44 207.461 161.223 207.417C161.041 207.378 161.889 208.805 161.367 208.461C161.258 208.39 160.596 206.875 159.468 205.811C159.049 205.416 159.01 205.916 158.897 205.822C157.962 205.044 158.893 205.163 157.349 203.592C156.217 202.441 154.969 201.949 153.627 200.159C157.949 206.111 154.076 201.323 151.859 199.203C151.504 198.863 151.293 199.617 149.574 197.224C154.63 201.061 148.856 195.48 147.771 194.252C147.714 194.183 148.017 193.868 147.485 193.266C147.439 193.216 147.286 193.485 146.77 192.945C141.876 187.818 145.151 190.965 144.468 189.77C144.177 189.261 141.564 186.977 140.937 186.293C140.793 186.135 141.086 186.004 140.526 185.398C139.533 184.326 138.417 183.571 137.753 182.871C137.677 182.789 138.033 182.463 136.695 181.208C136.319 180.855 135.806 180.541 136.191 181.176C137.468 183.281 141.124 186.167 142.613 188.506C143.972 190.638 138.686 184.815 138.411 184.513C138.309 184.402 139.514 185.384 138.506 184.192C137.645 183.174 135.397 181.92 134.205 180.322C134.114 180.2 133.579 178.548 133.658 178.574C133.725 178.604 135.468 180.313 135.384 179.914C135.373 179.866 134.334 178.718 134.312 178.466C134.285 178.158 135.192 176.445 135.005 176.168C134.522 175.462 134.582 176.15 134.237 175.722C133.495 174.806 131.167 171.41 130.609 171.733C131.032 172.259 131.455 172.786 131.878 173.313C129.321 170.565 130.19 171.934 129.747 171.618C129.269 171.277 129.789 171.027 128.982 170.051C128.807 169.839 125.183 165.979 125.074 166.206C127.306 168.136 126.071 167.787 126.152 167.895C126.462 168.307 127.186 168.537 127.64 169.054C130.83 172.693 127.116 169.469 127.764 170.423C127.988 170.75 128.755 171.114 128.854 171.249C129.176 171.689 128.863 171.982 129.13 172.228C129.755 172.802 129.548 171.663 129.616 171.691C130.403 171.998 132.027 174.513 130.305 173.586C130.866 174.567 131.55 174.126 131.897 174.992C132.587 176.713 130.965 174.663 130.414 174.208C128.436 172.577 128.163 171.812 125.686 169.213C124.794 168.277 123.48 167.399 123.064 166.968C122.801 166.696 121.428 163.135 119.776 164.478C119.002 163.309 118.591 160.755 117.588 159.735C116.688 158.821 116.401 159.627 116.299 159.557C116.142 159.451 115.15 158.258 114.72 157.939C114.216 157.566 114.207 157.986 113.469 157.339C111.63 155.728 112.244 155.262 112.115 155.043C110.608 152.504 110.643 154.177 110.148 153.758C109.689 153.367 104.399 146.852 103.014 145.725C103.609 146.156 104.203 146.587 104.797 147.018C104.295 145.742 102.803 145.252 103.426 144.66C102.22 145.393 101.137 142.801 100.578 142.232C100.357 142.008 100.198 142.185 99.9279 141.899C98.8711 140.785 96.6977 138.086 96.0522 137.546C93.2618 135.213 98.7775 142.635 99.2235 143.208C98.2651 142.119 92.5473 136.221 94.5735 139.473C94.8868 139.976 96.0392 140.33 96.2762 140.557C97.8771 142.099 96.2979 141.174 96.3747 141.339C96.5087 141.616 97.8841 142.342 98.0938 142.671C98.1644 142.78 97.2369 142.502 98.6424 144.081C97.5842 143.634 93.9073 138.948 93.3008 138.444C93.0847 138.265 93.4726 140.257 90.8264 135.797C90.7938 135.905 90.7612 136.014 90.7286 136.123C88.8058 134.043 86.8831 131.963 84.9603 129.883C85.332 129.963 86.7282 130.846 85.3188 129.42C84.5071 128.599 84.7078 129.566 84.6267 129.497C83.8333 128.819 71.7147 115.087 69.3011 112.484C68.4807 111.598 65.9342 109.362 65.7571 109.176C64.7018 108.061 61.2633 103.846 60.4968 103.078C60.0175 102.599 60.1386 103.355 59.7489 102.892C59.3871 102.462 60.075 102.626 59.9759 102.491C59.1599 101.365 51.7472 93.9047 50.3618 91.7964C51.2962 93.0062 56.9776 98.1281 57.086 97.825C57.0928 97.7745 56.0842 96.1952 55.7184 96.0111C55.5559 95.3101 53.3225 94.4085 52.6907 93.3944C52.6193 93.2797 53.4112 93.2725 52.0876 91.6385C51.6315 91.0758 50.0211 89.9762 49.1326 88.2115C47.1023 86.3252 37.9754 75.0173 36.8354 74.7032C36.7907 74.7038 37.9932 76.3705 36.8756 75.5186C35.39 74.3861 37.3636 74.8286 36.009 73.17C35.805 72.92 31.7388 68.5728 31.5546 68.4763C29.8605 67.5754 33.1381 71.6216 33.0326 71.6185C32.7681 71.6124 29.7933 68.4764 29.7096 68.3155C29.633 68.1595 32.6369 70.1979 29.5605 67.2692C29.8073 67.6997 30.0541 68.1301 30.3008 68.5605C28.8188 67.2149 29.1404 66.6706 28.8454 66.2872C27.9296 65.0937 26.1637 64.4991 25.399 61.9555C25.1976 61.2822 26.1507 61.8439 26.1311 61.7546C25.9214 60.9167 24.4664 60.9151 24.2989 59.5224C24.2859 59.4179 26.4307 61.0818 23.3109 57.6084C23.4682 57.8991 23.6255 58.1898 23.7827 58.4804C23.2143 58.1061 19.9783 54.6588 19.5836 54.1585C18.4305 52.697 19.9262 53.531 18.6287 52.1865C18.8636 53.5857 14.9943 49.4286 15.6996 49.2339C14.5578 49.1937 11.8055 45.182 10.3043 43.4824C9.35669 42.4104 7.1391 40.4797 6.86647 40.1135C6.53456 39.6672 7.06431 39.4174 6.48882 38.5902C6.32472 38.3543 4.02913 36.4152 2.71456 34.0836C2.45932 33.6321 2.45623 32.2051 3.26223 32.7462C4.64176 33.6723 6.10862 36.4515 6.50086 36.0468C6.9177 35.6107 3.90789 32.7967 3.22777 31.9225C0.088318 27.8859 2.53272 29.6493 2.58919 29.4221C2.71167 28.8547 0.837862 26.7915 0.791579 26.6767C0.609139 26.1927 2.20615 27.4128 2.4396 27.243C2.74167 27.02 1.44772 24.5709 1.94966 24.941C2.6671 25.4716 3.89919 27.6837 4.0238 27.7822C5.65552 29.0554 4.4309 26.4008 4.23194 25.5446C4.17304 25.2839 4.95407 25.832 4.85322 25.6625C3.31119 23.0776 3.5344 26.0107 2.31052 24.4695C1.21849 23.0945 3.14786 24.3925 3.12637 24.3217C3.09411 24.2344 1.71643 22.6551 1.64651 22.2769C1.61324 22.0894 6.07483 25.4027 6.29091 24.9027C5.04821 23.683 3.8055 22.4634 2.56279 21.2437C2.9517 20.7111 4.26915 22.8877 4.49145 23.0355C4.93864 23.3334 4.21146 22.0357 4.40485 21.9456C4.52371 21.8837 6.00666 22.8411 5.12006 21.569C4.8156 21.1316 3.73721 20.6085 2.79351 18.8669C7.71323 23.4581 4.87803 19.7606 4.91599 19.4608C4.95662 19.1641 7.49585 21.1847 4.82861 18.3591C5.65011 17.3944 5.17984 18.156 6.08181 18.8295C7.18743 19.6538 5.40611 17.053 8.47609 20.9385C8.72549 20.3364 6.03942 17.4097 5.93375 17.2219C5.84399 17.0584 6.64928 17.5219 6.51171 17.2222C4.86765 13.6931 6.1914 15.9422 6.01011 14.6551C5.99422 14.5404 3.8417 11.7428 5.71131 13.6651C9.11717 17.1676 9.86117 19.242 11.7344 18.6615C9.89638 15.4586 6.11686 12.9732 5.36869 12.1698C4.22483 10.939 5.65834 11.9906 5.59569 11.7686C5.57209 11.6931 4.58205 10.6364 4.59052 10.6026C4.91098 8.92664 8.91534 15.3813 10.6646 16.9744C10.3942 16.369 10.1237 15.7637 9.85328 15.1584C10.4316 15.7897 11.0099 16.421 11.5881 17.0523C9.16621 13.7455 11.6072 16.8419 13.1052 16.8629C13.4416 16.8676 11.3354 15.158 13.8894 16.9722C12.5005 15.1894 13.1483 15.574 11.5532 14.263C11.9164 14.0075 15.3562 17.091 16.7353 18.2871C12.8264 13.1961 14.0627 16.9915 11.0013 12.3047C9.90945 11.9066 11.7536 13.7996 11.5426 13.6997C10.7852 13.3417 9.95734 11.6507 7.65234 10.7844C7.27588 10.6443 7.85541 12.1476 6.38694 10.4721C6.22517 10.2862 5.64104 8.90265 5.68063 8.89352C6.09205 8.77679 6.92395 9.91779 7.08193 9.85379C7.23117 9.79282 6.11576 8.6882 6.14343 8.65607C6.46907 8.29865 7.15421 9.50571 7.13462 9.25858C7.09401 8.72336 4.09606 3.83853 8.7881 9.51324C4.29897 5.33173 7.87004 9.28641 9.61608 10.9167C10.0607 11.3331 10.3771 11.2553 11.0293 11.8318C11.8689 12.5728 12.6365 13.6333 13.0604 14.0262C13.5174 14.4477 11.6716 11.3776 14.9211 15.2968C13.6932 12.9195 10.1007 9.99969 8.75366 7.79105C6.03711 3.33405 12.011 9.67355 12.6865 10.2862C12.8668 10.4491 12.6138 9.58707 12.7392 9.69101C12.9424 9.86258 16.1125 13.6585 16.6771 13.8063C17.2407 13.9533 15.4561 12.4697 15.603 12.1325C15.7014 11.905 19.9839 16.0725 17.941 13.569C16.5326 11.8438 13.1183 9.39923 13.3805 8.23495C15.6272 10.6144 17.8738 12.9938 20.1205 15.3733C19.1991 13.7939 18.2776 12.2146 17.3562 10.6353C19.8979 13.2879 21.7088 15.9284 24.4342 18.168C19.7152 11.1418 26.9572 19.5588 27.1462 19.5531C27.2378 19.5258 25.7493 16.4286 25.5256 15.9161C27.7549 17.8424 33.8261 24.3273 31.2374 19.6676C31.6681 20.5486 33.6878 21.8043 33.7049 21.7484C33.9018 21.1815 30.3187 17.7041 31.2147 17.9913C32.2536 18.3235 32.5798 19.8041 33.5923 20.8415C38.7917 26.1619 39.4687 22.8119 44.1275 28.6452C44.101 28.4697 44.0746 28.2941 44.0481 28.1186C49.3472 34.2477 54.6463 40.3768 59.9454 46.5059C62.6869 48.3034 68.7045 54.2364 71.4048 57.3798C71.949 58.0123 74.3597 61.3525 74.509 61.6339C74.7817 62.1583 72.6362 59.8552 73.3808 61.0981C73.5392 61.3594 78.0368 66.6404 78.0539 65.9584C77.5749 65.3441 75.7743 63.6928 75.5904 63.323C74.3078 60.7168 88.1286 77.0378 89.0727 77.6132C88.8695 77.1593 88.6662 76.7054 88.4629 76.2516C89.3089 77.3049 90.1549 78.3583 91.0009 79.4117ZM21.5752 58.4639C20.6843 58.1761 19.5907 56.4308 18.6911 55.6273C17.4465 54.5188 14.2176 53.6347 16.3778 53.3234C18.1102 55.0369 19.8427 56.7504 21.5752 58.4639ZM44.8171 85.3746C43.9146 83.9925 45.5141 84.2561 46.0944 85.5321C46.158 85.6744 46.0394 87.2432 44.8171 85.3746ZM33.7446 72.3342C33.8005 72.3763 34.7228 73.4426 34.7438 73.4899C35.2861 74.7021 32.5073 71.4856 33.7446 72.3342ZM89.3479 133.428C88.114 132.121 88.2987 133.705 89.3276 134.282C89.3925 134.319 89.4285 133.515 89.3479 133.428ZM88.5115 132.461C88.1922 130.872 85.0693 129.898 86.6884 131.448C86.846 131.598 88.5249 132.536 88.5115 132.461ZM41.2304 80.7808C41.5883 80.706 42.5994 82.0595 43.0234 82.6444C42.7956 82.8229 41.7277 81.2812 41.2304 80.7808ZM69.8106 112.452C70.0432 112.339 66.124 107.998 65.614 107.921C66.3343 108.514 69.5995 112.551 69.8106 112.452ZM80.095 123.373C80.0279 123.234 78.6289 121.775 78.5052 121.966C78.9503 122.892 80.3965 124 80.095 123.373ZM100.009 145.555C100.123 145.599 100.15 143.541 101.863 146.822C102.115 147.303 100.587 146.149 100.675 146.321C100.864 146.678 101.037 146.939 101.197 147.129C99.9954 145.965 98.7956 144.711 98.7464 144.529C98.5172 143.676 99.9596 145.534 100.009 145.555ZM111.243 156.499C111.643 156.603 113.021 158.319 113.285 158.753C113.329 158.829 112.634 158.95 113.329 159.656C113.887 160.222 113.55 158.93 114.511 160.146C115.483 161.375 113.762 160.113 113.83 160.236C113.922 160.399 115.743 162.014 115.428 162.197C115.194 162.331 113.595 160.285 113.125 159.846C112.523 159.284 112.86 160.318 112.014 159.235C111.482 158.554 112.377 158.393 112.284 158.231C112.206 158.097 109.862 156.154 111.245 156.505C111.244 156.503 111.244 156.501 111.243 156.499ZM101.525 147.442C101.421 147.366 101.312 147.266 101.197 147.129C101.307 147.235 101.417 147.339 101.525 147.442ZM24.9777 61.7424C25.367 62.5325 23.4573 60.8651 23.0527 59.9473C23.2291 59.7666 24.9151 61.6172 24.9777 61.7424ZM103.028 148.173C104.542 150.147 103.125 148.968 101.525 147.442C102.101 147.865 102.52 147.51 103.028 148.173ZM55.7184 96.0111C55.7454 96.1274 55.7229 96.2369 55.6186 96.3419C55.555 96.0294 55.6031 95.953 55.7184 96.0111ZM59.39 100.491C61.0507 101.666 58.3433 98.6801 58.1207 98.9143C58.0384 99.0046 59.3236 100.444 59.39 100.491ZM90.856 135.172C90.7675 135.008 93.6627 136.196 90.1684 133.834C91.5093 135.565 89.8587 133.95 89.793 134.055C89.5981 134.35 92.2953 136.859 92.7283 137.563C93.6089 137.627 91.1485 135.715 90.8591 135.176C90.8581 135.175 90.857 135.173 90.856 135.172ZM129.851 177.698C129.252 177.568 128.283 176.318 127.588 175.512C128.187 175.642 129.155 176.892 129.851 177.698ZM315.978 384.887C310.857 379.685 311.312 378.006 315.343 383.355C315.421 383.46 316.384 385.118 315.978 384.887ZM274.424 338.081C274.438 337.145 276.034 338.768 276.837 340.054C277.019 340.345 277.375 341.706 276.327 340.729C276.931 340.247 275.676 338.408 274.424 338.081ZM104.269 148.943C105.067 149.196 106.328 151.052 107.064 151.966C106.326 151.668 104.862 149.802 104.269 148.943ZM300.527 366.554C300.049 365.95 299.29 365.934 299.344 366.063C299.584 366.647 300.878 367.416 300.527 366.554ZM99.5208 143.561C99.6416 143.316 101.791 145.343 101.462 145.915C101.075 145.416 99.4511 143.722 99.5208 143.561ZM128.651 176.078C128.441 175.652 130.196 177.258 130.579 177.876C130.34 178.014 128.789 176.357 128.651 176.078ZM292.114 357.474C291.69 356.93 290.552 355.641 290.258 355.649C289.891 355.66 291.648 357.472 292.114 357.474ZM378.085 452.415C378.069 452.547 375.749 451.05 375.094 450.047C373.853 448.14 378.075 452.297 378.085 452.415ZM305.603 371.775C306.662 373.742 305.43 371.608 305.081 372.049C306.043 373.149 308.451 375.87 307.187 373.647C306.94 373.215 306.031 372.305 305.603 371.775ZM304.402 370.161C304.113 370.108 302.646 369.323 303.58 370.302C304.013 370.754 305.155 371.083 304.402 370.161ZM366.872 440.306C365.937 438.53 371.702 445.341 371.81 445.589C371.866 445.72 371.894 445.815 371.901 445.876C372.235 446.016 373.383 447.25 373.22 447.658C372.907 447.261 371.959 446.258 371.884 446.11C371.852 446.046 371.831 445.996 371.82 445.958C371.169 445.744 367.052 440.645 366.872 440.306ZM357.369 428.976C359.396 430.147 358.744 431.264 358.586 431.148C356.591 429.682 358.323 430.25 358.305 430.167C358.244 429.993 356.78 428.995 357.374 428.981C357.372 428.979 357.371 428.978 357.369 428.976ZM364.998 437.917C365.071 437.975 366.292 439.39 366.329 439.46C367.045 440.876 363.588 436.872 364.998 437.917ZM119.769 164.697C120.573 165.774 119.358 165.101 118.885 164.33C118.848 164.265 119.06 163.747 119.769 164.697ZM303.597 369.448C303.453 369.16 298.388 363.041 298.198 363.853C298.709 364.3 304.477 371.246 303.597 369.448ZM264.074 325.221C265.006 326.266 263.506 325.562 263.186 324.846C263.067 324.58 263.839 324.958 264.074 325.221ZM97.303 140.217C96.0678 139.373 97.1536 138.801 97.6923 140.011C97.7135 140.058 97.3513 140.25 97.303 140.217ZM271.272 333.785C267.755 330.457 270.041 329.939 273.722 335.068C273.523 334.983 273.324 334.898 273.125 334.813C277.738 340.406 273.348 335.278 272.078 334.035C271.595 333.563 271.718 334.212 271.273 333.791C271.273 333.789 271.273 333.787 271.272 333.785ZM259.184 319.72C257.157 315.292 262.385 322.525 264.227 324.292C262.132 322.857 260.052 320.407 262.516 324.067C258.157 319.395 260.365 320.986 260.23 320.765C260.069 320.504 259.27 319.909 259.184 319.72ZM267.387 328.834C267.598 329.005 268.731 330.709 269.255 331.219C268.204 330.792 265.98 327.7 267.387 328.834ZM346.762 417.677C347.164 417.542 347.655 417.66 348.615 418.946C348.139 418.709 347.332 418.062 346.762 417.677ZM22.0697 55.9533C21.3549 55.1162 19.9993 53.3886 20.1444 54.1616C20.1676 54.2396 21.8968 56.1042 22.0697 55.9533ZM288.423 352.092C288.302 351.886 284.28 347.363 285.359 349.204C285.684 349.76 289.406 353.819 288.423 352.092ZM309.336 375.436C309 375.056 307.57 373.575 307.473 373.604C307.143 373.713 308.962 375.474 309.336 375.436ZM18.6552 51.5585C18.5884 51.4238 16.2886 48.9716 16.3953 49.3725C16.5988 50.1326 18.8839 52.0208 18.6552 51.5585ZM123.701 167.71C123.899 167.909 123.834 168.468 123.895 168.543C124.043 168.717 127.602 172.434 125.885 171.335C125.599 171.152 120.807 165.509 120.204 164.757C120.386 164.093 122.089 166.812 122.647 167.345C122.746 167.438 123.165 167.178 123.698 167.71C123.699 167.71 123.7 167.71 123.701 167.71ZM352.632 423.594C353.057 423.517 357.28 427.851 356.901 428.097C355.478 426.596 354.055 425.095 352.632 423.594ZM350.624 421.269C349.956 420.135 352.039 422.325 352.549 423.064C352.371 423.237 350.721 421.434 350.624 421.269ZM302.695 365.986C302.222 365.594 303.071 367.343 302.713 367.102C302.486 366.947 301.728 365.802 301.314 365.592C301.192 365.537 301.742 366.905 302.026 367.188C302.428 367.592 302.355 366.915 302.772 367.375C304.156 368.903 305.166 370.452 306.463 371.885C306.581 372.013 305.885 370.819 306.877 371.929C307.031 372.1 307.643 373.408 308.88 374.69C312.472 376.749 313.455 379.747 317.139 383.147C317.104 382.925 314.852 379.93 314.715 379.759C312.085 376.514 307.107 370.94 304.189 367.689C303.441 366.854 303.601 367.442 303.27 367.09C303.01 366.811 303.691 366.809 302.695 365.986ZM22.6692 56.2003C22.6959 55.4712 21.2274 54.3174 20.4614 53.4259C20.3976 54.0394 21.9853 55.2711 22.6692 56.2003ZM332.772 400.816C332.364 400.391 331.257 398.931 331.042 398.921C330.764 398.91 332.432 400.954 332.772 400.816ZM142.977 189.375C143.025 189.408 143.952 190.48 143.976 190.53C144.52 191.744 141.741 188.527 142.977 189.375ZM165.561 214.651C166.326 215.408 167.168 216.109 167.103 216.652C166.693 216.101 165.264 214.749 165.561 214.651ZM196.827 249.424C197.08 248.899 198.982 251.538 199.354 252.024C199.025 252.016 196.647 249.805 196.827 249.424ZM347.865 416.373C349.163 417.865 349.491 417.009 350.056 418.189C350.146 418.383 349.324 420.012 348.345 417.97C348.169 417.603 349.492 418.471 347.865 416.373ZM274.392 335.84C274.994 335.976 275.965 337.216 276.654 338.024C276.298 338.024 274.916 336.385 274.392 335.84ZM14.901 46.771C14.6555 45.7448 11.5139 42.8076 11.9752 43.8185C12.0437 43.9596 14.5133 46.3112 14.901 46.771ZM108.838 151.595C110.311 152.641 107.962 149.844 106.904 149.245C107.271 149.616 108.739 151.524 108.838 151.595ZM189.537 240.874C189.606 240.926 190.827 242.342 190.868 242.417C191.584 243.833 188.128 239.828 189.537 240.874ZM158.597 205.923C159.29 206.206 162.054 209.675 162.474 210.632C161.481 210.24 157.736 205.574 158.597 205.923ZM342.255 410.477C343.21 411.515 344.03 412.577 344.791 413.635C344.404 413.616 342.202 410.725 342.255 410.477ZM194.149 245.955C194.215 246.031 194.257 246.124 194.318 246.197C194.26 246.115 194.204 246.034 194.149 245.955ZM321.295 386.865C320.585 385.914 320.375 386.433 320.412 386.497C320.886 387.267 322.098 387.943 321.295 386.865ZM22.3221 54.6965C22.386 54.0881 20.7951 52.8448 20.111 51.9219C20.066 52.4084 21.6709 54.0431 22.3221 54.6965ZM256.548 315.396C255.921 313.962 260.386 318.074 261.001 319.233C260.837 319.506 256.643 315.603 256.548 315.396ZM105.686 147.068C105.871 146.742 103.856 145.142 104.091 145.655C104.24 145.981 105.569 147.269 105.686 147.068ZM262.878 321.632C263.338 321.981 263.961 323.2 263.491 322.997C262.887 322.736 262.756 321.544 262.878 321.632ZM297.136 359.326C297.011 359.105 294.508 356.866 295.16 358.134C295.612 359.015 296.096 358.784 296.248 358.95C296.414 359.139 299.528 363.545 297.136 359.326ZM234.158 290.017C235.101 290.863 236.001 292.102 236.89 293.075C236.367 292.823 234.299 290.611 234.158 290.017ZM112.297 154.282C112.199 153.958 106.694 147.703 109.529 151.519C109.694 151.742 112.593 155.264 112.297 154.282ZM347.865 416.373C347.701 416.185 347.522 415.96 347.325 415.688C347.536 415.944 347.711 416.174 347.865 416.373ZM332.895 399.635C333.392 399.8 331.911 398.048 331.356 397.637C330.981 397.694 332.826 399.612 332.895 399.635ZM237.225 292.908C237.843 293.374 238.647 294.505 239.288 295.193C239.003 295.236 237.263 293.316 237.225 292.908ZM201.778 253.059C202.679 254.276 203.969 255.612 204.207 255.437C204.193 255.491 204.206 255.578 204.251 255.701C204.296 255.825 205.478 256.935 205.873 257.524C208.237 261.049 194.764 245.688 203.298 253.94C202.791 253.646 202.284 253.352 201.778 253.059ZM155.108 201.004C154.803 200.127 152.866 198.644 153.177 199.202C153.395 199.589 155.413 201.882 155.108 201.004ZM177.283 225.361C177.16 225.128 175.408 223.555 175.228 223.636C175.979 224.77 177.841 226.426 177.283 225.361ZM151.022 195.829C150.703 195.393 149.815 195.269 149.839 195.333C150.047 195.88 151.386 196.715 151.022 195.829ZM346.286 412.285C345.875 411.58 343.86 409.965 343.205 409.807C343.191 409.681 343.077 409.41 342.822 408.953C342.823 408.954 342.824 408.955 342.825 408.956C342.479 408.341 328.838 392.909 337.525 403.676C337.797 404.014 337.657 403.345 338.788 404.695C338.863 404.784 338.693 405.014 338.923 405.291C339.454 405.925 342.266 409.318 343.025 409.825C342.991 409.866 342.993 409.941 343.04 410.062C343.466 411.139 346.606 412.832 346.286 412.285ZM180.423 228.778C180.186 228.358 179.116 227.315 178.829 227.365C179.233 227.996 180.974 229.753 180.423 228.778ZM112.878 153.412C112.387 152.563 110.479 151.008 110.82 151.689C111.029 152.107 113.444 154.391 112.878 153.412ZM170.342 217.758C173.804 222.046 171.238 218.719 172.071 219.104C171.494 218.655 170.918 218.207 170.342 217.758ZM362.614 431.854C362.09 431.145 363.311 431.435 363.668 432.413C363.779 432.72 362.909 432.249 362.614 431.854ZM389.265 461.177C389.236 460.196 391.404 463.166 390.127 462.396C390.072 462.356 389.283 461.233 389.265 461.177ZM370.95 440.41C370.231 440.255 369.934 440.001 368.892 438.682C370.642 440.448 369.386 438.479 370.95 440.41ZM204.23 255.394C204.224 255.412 204.22 255.427 204.207 255.437C204.211 255.418 204.219 255.405 204.23 255.394ZM147.48 192.055C147.292 191.299 145.981 189.881 146.092 190.554C146.104 190.618 147.091 192.026 147.48 192.055ZM343.205 409.807C343.218 409.919 343.155 409.913 343.025 409.825C343.056 409.788 343.117 409.786 343.205 409.807ZM154.631 199.567C154.382 199.698 156.267 201.954 156.37 202.02C157.849 202.959 155.454 200.458 154.631 199.567ZM100.176 138.705C100.054 138.612 100.183 139.809 100.789 140.07C101.258 140.272 100.636 139.055 100.176 138.705ZM374.89 444.53C375.511 445.223 376.387 446.197 376.3 446.6C375.921 446.102 374.694 444.68 374.89 444.53ZM388.649 459.805C387.622 459.249 385.943 457.38 384.919 456.144C385.284 455.776 387.869 459.118 388.649 459.805ZM347.83 414.292C347.794 414.221 346.349 412.382 346.305 412.851C346.238 413.536 348.13 414.907 347.83 414.292ZM102.927 142.325C103.802 142.942 102.742 140.666 101.585 140.226C100.991 139.999 102.78 142.221 102.927 142.325ZM143.807 187.252C142.737 186.361 144.753 189.138 145.341 189.251C144.939 188.76 144.187 187.568 143.807 187.252ZM175.396 221.854C173.272 217.929 173.435 220.96 174.074 221.42C174.164 221.485 175.448 221.949 175.396 221.854ZM9.25679 37.3674C8.73825 37.0075 9.87803 39.0623 10.3335 39.0514C10.617 39.0428 9.58816 37.5978 9.25679 37.3674ZM218.565 270.906C218.44 270.772 218.316 270.639 218.193 270.507C218.296 270.596 218.419 270.724 218.565 270.906ZM136.493 177.02C137.438 180.277 138.068 179.279 138.241 179.481C138.613 179.918 139.207 181.176 139.978 181.936C139.027 181.126 138.076 180.316 137.125 179.507C137.7 180.305 142.975 186.987 143.272 186.959C143.695 186.921 141.829 185.005 141.799 184.927C141.756 184.815 142.181 183.871 142.042 183.663C141.812 183.321 137.079 178.024 136.493 177.02ZM169.209 215.214C169.591 215.808 169.445 216.207 169.728 216.388C169.825 216.449 170.103 216.223 170.424 216.442C170.019 216.033 169.614 215.623 169.209 215.214ZM131.851 173.838C131.598 172.903 134.066 175.897 134.112 176.022C134.335 176.714 132.057 174.602 131.851 173.838ZM153.887 198.263C153.811 198.141 151.923 195.836 151.758 196.016C152.147 196.725 154.768 199.722 153.887 198.263ZM170.753 216.772C171.421 217.578 172.475 219.289 172.724 218.761C172.723 218.76 172.722 218.758 172.721 218.757C172.065 218.096 171.409 217.434 170.753 216.772ZM106.161 144.221C105.503 142.206 105.311 143.614 106.252 145.076C106.886 145.205 106.269 144.551 106.161 144.221ZM102.49 139.18C102.245 138.676 98.4043 134.656 98.6334 135.59C98.7145 135.922 101.154 138.026 101.229 138.157C101.344 138.354 100.289 137.931 101.502 139.132C101.562 138.944 102.575 139.352 102.49 139.18ZM105.497 142.661C104.695 140.792 103.51 141.275 104.476 142.354C104.853 142.777 105.611 142.928 105.497 142.661ZM110.68 148.582C110.301 147.99 109.191 146.505 108.043 145.826C109.156 147.116 110.269 148.405 111.381 149.695C111.681 149.689 111.01 149.1 110.677 148.578C110.678 148.579 110.679 148.58 110.68 148.582ZM398.68 466.353C397.91 464.986 400.364 467.521 400.402 467.688C400.491 468.204 399.024 466.964 398.68 466.353ZM9.39803 21.1681C9.21498 20.7609 9.36206 20.2549 8.56201 19.7155C8.94555 20.6366 9.3291 21.5577 9.71265 22.4788C10.7648 22.517 9.5971 21.6141 9.39803 21.1681ZM9.05241 16.6451C9.15495 16.7318 9.53524 15.4132 10.1056 17.2107C10.4912 18.4249 5.89116 14.0714 5.51341 12.8788C6.53345 13.6549 8.17603 15.8935 9.05241 16.6451ZM5.40918 5.05206C5.42957 4.93585 7.13401 6.62872 7.2709 6.87897C7.98865 8.19376 5.30246 5.67743 5.40918 5.05206ZM10.3583 10.8915C9.77457 9.90378 11.5485 11.6597 11.9481 12.299C11.8351 12.4974 10.4499 11.0428 10.3583 10.8915ZM400.861 443.555C400.636 442.121 398.641 442.45 400.148 443.613C400.22 443.669 400.867 443.62 400.861 443.555ZM7.84994 6.01108C8.43363 6.99881 6.65967 5.24286 6.26007 4.60358C6.3749 4.40753 7.76005 5.8616 7.84994 6.01108ZM401.69 441.658C401.033 440.075 399.992 441.776 400.07 441.977C400.4 442.8 402.865 444.42 403.393 444.729C400.326 441.745 401.999 442.403 401.69 441.658ZM395.853 436.879C394.699 435.9 396.971 439.012 397.856 439.199C397.339 438.662 396.182 437.157 395.853 436.879ZM390.225 429.7C389.737 429.054 388.256 427.161 387.763 427.063C388.392 427.681 389.767 429.654 390.225 429.7ZM389.675 427.74C389.136 426.529 388.049 427.1 389.284 427.944C389.332 427.977 389.689 427.79 389.675 427.74ZM385.258 422.183C385.058 421.251 383.569 421.32 384.442 422.337C384.703 422.638 385.276 422.284 385.258 422.183ZM401.867 438.779C401.227 437.762 399.593 437.179 401.215 439.12C400.528 438.544 399.84 437.968 399.153 437.392C401.022 440.164 401.711 439.218 402.312 439.957C403.15 440.99 402.377 441.543 401.978 441.543C403.136 441.967 406.237 445.403 408.107 447.318C406.716 445.407 404.479 442.289 403.043 440.461C402.634 439.938 402.011 439.633 401.655 439.194C401.086 438.489 401.901 438.837 401.87 438.782C401.869 438.781 401.868 438.78 401.867 438.779ZM379.045 415.244C377.82 413.078 377.986 414.995 379.057 415.878C379.108 415.911 379.076 415.297 379.045 415.244ZM8.31266 1.26254C10.1231 4.00101 8.06845 2.67432 13.3331 7.07544C10.9128 5.41379 12.8588 7.28949 12.2796 7.0611C11.8173 6.87579 10.8336 5.50864 11.1546 6.52878C10.6582 5.25485 6.84659 1.21304 6.73934 0.976532C6.7409 0.978271 6.74245 0.980011 6.74401 0.98172C6.67912 0.840118 7.73458 0.389038 8.31266 1.26254ZM392.469 427.668C392.972 426.126 391.101 427.38 390.902 425.416C388.226 424.968 394.819 429.775 394.403 431.449C388.732 424.89 397.179 436.655 394.724 430.725C397.479 434.951 396.013 431.763 396.73 432.153C397.496 432.572 399.146 434.88 399.44 434.423C399.439 434.422 399.438 434.421 399.436 434.42C398.256 433.162 397.076 431.903 395.896 430.645C396.185 432.655 394.081 429.808 393.966 428.304C393.467 428.092 392.968 427.88 392.469 427.668ZM398.205 435.636C398.111 435.492 395.486 432.808 395.479 433.139C395.707 433.609 399.394 437.453 398.205 435.636ZM409.423 447.75C408.525 446.747 407.297 445.05 406.49 444.789C407.388 445.793 408.617 447.489 409.423 447.75ZM363.126 396.112C361.719 395.069 365.175 399.069 364.46 397.656C364.425 397.586 363.195 396.164 363.126 396.112ZM389.701 424.905C388.853 423.32 388.388 424.847 389.518 425.571C389.583 425.612 389.74 424.978 389.701 424.905ZM10.1949 3.10858C10.5219 2.97165 13.496 6.63278 14.0563 7.25195C13.5077 7.10709 9.81988 3.2655 10.1949 3.10858ZM411.94 448.676C411.044 445.878 407.579 444.103 407.335 443.786C407.093 443.47 407.9 443.581 407.85 443.504C407.734 443.331 404.878 440.22 404.714 440.092C404.595 440.002 404.556 441.065 403.8 440.572C405.249 441.556 410.214 447.474 410.543 447.718C410.799 447.905 409.813 445.645 411.936 448.672C411.937 448.674 411.939 448.675 411.94 448.676ZM406.788 442.937C407.263 443.929 405.257 441.754 404.863 441.145C403.99 439.791 406.725 442.811 406.788 442.937ZM402.244 437.453C402.07 437.155 400.079 434.845 399.649 434.883C400.281 436.256 402.636 438.131 402.244 437.453ZM379.53 412.247C378.968 411.688 377.709 409.891 377.402 409.999C377.964 410.56 379.223 412.356 379.53 412.247ZM22.8963 13.3045C22.2046 12.1573 24.3187 14.3556 24.8231 15.0979C24.7058 15.2682 22.9551 13.4023 22.8963 13.3045ZM391.648 422.758C391.403 422.348 384.838 415.386 383.836 414.482C384.544 415.611 390.868 422.674 391.238 422.919C391.347 422.991 391.677 422.812 391.648 422.758ZM405.58 438.053C406.496 438.408 406.483 439.19 406.552 439.277C407.226 440.129 408.804 441.735 408.157 441.654C407.006 440.115 403.757 437.343 405.58 438.053ZM380.57 410.398C378.276 408.092 382.099 413.046 381.897 412.127C381.883 412.069 380.807 410.637 380.57 410.398ZM392.458 423.466C393.204 423.759 399.37 431.084 400.397 432.226C398.985 431.645 398.617 430.485 397.357 429.132C397.016 428.768 396.9 429.051 396.864 429.012C396.277 428.378 396.946 428.646 396.594 428.247C396.37 427.995 391.408 423.054 392.458 423.466ZM406.143 438.219C406.69 438.447 410.765 442.819 410.875 443.043C411.703 444.716 406.388 438.624 406.143 438.219ZM392.309 422.42C393.569 422.671 396.363 426.55 393.903 424.387C393.67 424.18 393.039 422.979 392.309 422.42ZM381.347 410.167C381.257 410.033 379.108 407.412 378.885 407.53C379.141 407.957 382.377 411.686 381.347 410.167ZM383.136 410.92C383.077 410.863 383.257 411.768 382.24 410.547C382.156 410.445 382.385 409.907 380.907 408.552C380.607 408.278 379.926 408.046 379.94 408.094C380.71 410.196 386.08 413.786 383.136 410.92ZM406.536 438.014C406.487 437.624 407.501 437.758 407.719 438.504C407.811 438.824 407.14 438.674 406.536 438.014ZM374.329 402.036C375.944 403.231 371.87 398.583 371.583 398.418C371.529 398.733 374.168 401.916 374.329 402.036ZM27.2689 13.5167C27.2679 13.5155 27.2669 13.5143 27.2658 13.5132C28.3049 14.806 27.3699 14.2671 27.4139 14.3318C29.4056 17.2846 29.3448 16.0812 29.7802 16.4316C30.7149 17.1818 29.9008 17.6572 31.5192 18.8853C28.8943 16.8102 31.0771 18.8846 30.8953 19.1736C30.1454 20.3445 28.4271 15.4881 27.119 14.4529C26.9369 14.3084 27.7494 15.8526 27.2665 15.4973C25.6975 14.3414 23.2811 8.55685 27.2689 13.5167ZM408.123 438.866C408.929 439.174 412.541 443.764 411.267 442.832C411.062 442.682 406.942 438.41 408.123 438.866ZM226.597 236.004C227.786 236.818 225.914 234.136 225.315 233.866C225.017 233.732 226.074 235.647 226.597 236.004ZM212.468 218.103C211.305 216.911 209.075 216.556 210.623 217.948C210.788 218.096 212.449 218.376 212.468 218.103ZM284.97 299.871C284.187 298.239 283.554 298.947 284.417 299.887C284.721 300.219 284.995 299.922 284.97 299.871ZM240.547 250.622C240.455 250.47 239.068 249.016 238.955 249.216C239.355 249.855 241.131 251.61 240.547 250.622ZM285.439 300.192C284.624 299.539 285.302 301.314 286.64 301.805C286.172 301.366 285.523 300.259 285.439 300.192ZM391.46 418.356C390.595 417.973 389.051 416.079 388.064 415.081C388.336 414.633 390.723 417.672 391.46 418.356ZM216.766 223.739C215.449 222.804 217.49 225.508 217.631 224.965C217.621 224.916 216.818 223.775 216.766 223.739ZM322.583 341.447C321.595 340.795 323.726 343.769 323.449 342.673C323.432 342.622 322.638 341.483 322.583 341.447ZM333.068 353.373C332.562 352.659 330.062 349.924 330.809 351.192C330.925 351.388 332.82 353.507 333.068 353.373ZM30.1143 16.2628C30.1849 15.5699 31.9099 17.6731 32.1029 18.0226C32.1772 18.1613 30.0235 17.1653 30.1143 16.2628ZM277.487 291.423C276.838 290.797 275.37 288.981 274.894 288.856C275.671 289.637 277.283 292.003 277.487 291.423ZM221.569 229.08C221.069 227.685 219.461 225.979 219.304 226.899C221.071 228.792 219.579 226.221 221.569 229.08ZM289.759 304.096C289.308 303.531 288.416 303.59 288.446 303.673C288.734 304.464 290.034 304.811 289.759 304.096ZM253.162 264.239C253.358 264.007 251.711 262.379 251.774 262.738C251.793 262.857 253.004 264.426 253.162 264.239ZM371.354 395.727C370.85 394.756 373.211 396.983 373.613 397.908C373.58 398.562 371.42 395.848 371.354 395.727ZM302.993 319.085C303.396 318.867 300.794 316.348 301.47 317.654C301.64 317.981 302.857 319.157 302.993 319.085ZM326.507 344.451C324.492 343.004 331.013 350.825 329.719 348.393C329.626 348.219 326.682 344.578 326.507 344.451ZM337.369 357.033C337.133 356.683 338.386 355.837 339.113 357.51C339.209 357.729 338.204 357.203 338.261 357.402C338.296 357.518 340.654 360.457 340.796 360.562C340.95 360.674 341.16 360.19 341.327 360.295C341.514 360.413 342.748 362.417 343.556 363.323C345.077 365.028 345.54 364.944 345.666 365.083C346.033 365.487 346.435 366.359 347.175 367.182C350.907 371.33 356.862 377.45 359.188 381.306C356.811 378.151 354.035 375.603 351.335 372.764C352.722 373.06 347.005 368.908 350.422 371.27C349.023 370.026 338.148 358.175 337.372 357.037C337.371 357.036 337.37 357.035 337.369 357.033ZM208.39 212.936C209.454 213.355 205.862 209.53 205.124 209.594C205.526 210.164 208.262 212.881 208.39 212.936ZM225.495 230.103C225.887 230.407 226.939 230.082 228.27 232.322C228.271 232.323 228.273 232.325 228.275 232.327C228.664 232.981 227.914 232.511 227.94 232.671C227.947 232.732 229.135 234.797 227.782 233.411C225.718 231.299 228.15 232.707 227.106 231.53C226.978 231.387 224.585 229.534 224.612 229.742C224.614 229.764 225.298 230.354 225.36 230.497C225.596 231.037 225.182 231.043 225.223 231.112C225.367 231.329 228.91 234.476 229.022 235.296C229.06 235.561 223.637 230.044 223.493 229.768C223.402 229.593 224.101 229.074 224.032 228.87C223.996 228.766 221.677 226.671 221.466 226.318C221.405 226.215 221.363 226.132 221.335 226.069C221.45 226.598 219.582 224.491 219.865 224.353C219.986 224.31 221.23 225.798 221.261 225.863C221.275 225.892 221.284 225.919 221.294 225.943C221.269 225.426 225.643 230.316 225.058 228.937C226.527 230.174 224.347 229.214 225.495 230.103ZM232.003 236.545C231.804 236.46 231.605 236.375 231.406 236.29C233.798 238.617 236.039 241.768 238.605 244.619C239.256 245.342 238.922 244.137 239.662 245.188C240.254 246.029 240.625 247.216 240.168 246.88C240.056 246.798 238.916 245.026 238.194 244.274C236.063 242.056 236.227 242.953 236.097 242.828C235.954 242.69 234.911 241.026 234.194 240.25C232.389 238.3 231.359 237.593 229.219 234.637C230.853 235.985 230.595 234.674 232.003 236.545ZM314.198 329.53C314.506 329.423 315.764 331.222 316.326 331.781C316.018 331.89 314.76 330.089 314.198 329.53ZM97.47 87.7827C96.6554 87.615 99.9172 91.4274 99.3392 90.1695C99.2116 89.891 97.8886 88.2538 97.47 87.7827ZM112.308 104.743C112.858 105.151 111.316 102.903 111.036 103.163C110.947 103.247 112.237 104.69 112.308 104.743ZM260.409 268.88C260.505 268.965 261.657 270.411 261.677 270.471C262.105 271.731 258.269 267.01 260.409 268.88ZM131.07 124.71C129.266 123.187 133.867 128.517 132.736 126.641C132.679 126.548 131.156 124.783 131.07 124.71ZM137.677 131.927C137.289 131.522 135.745 129.563 135.611 129.639C135.397 129.765 137.178 131.995 137.677 131.927ZM291.471 303.211C291.704 302.638 293.585 305.361 294.4 306.164C294.167 306.737 292.286 304.013 291.471 303.211ZM277.926 287.525C287.503 297.525 284.579 296.051 277.173 287.093C277.428 286.842 277.322 286.894 277.926 287.525ZM289.723 300.75C289.121 300.614 288.149 299.375 287.461 298.566C287.773 298.542 289.163 300.223 289.723 300.75ZM94.0462 82.8296C94.9613 83.1743 97.1176 86.4041 96.5227 86.02C96.3866 85.9285 93.649 82.7581 94.0462 82.8296ZM261.538 269.425C261.725 268.823 264.339 272.062 264.462 272.379C264.96 273.656 261.852 269.595 261.538 269.425ZM304.955 317.503C305.761 317.765 306.992 319.461 307.884 320.462C307.206 320.25 305.71 318.354 304.955 317.503ZM298.734 310.083C298.802 310.135 300.023 311.551 300.065 311.626C300.781 313.042 297.324 309.038 298.734 310.083ZM28.7615 9.08856C28.8133 9.12576 29.7396 10.1969 29.7607 10.2443C30.3028 11.4562 27.5242 8.23999 28.7615 9.08856Z" fill="black"/>
</svg>
