<svg width="468" height="420" viewBox="0 0 468 420" fill="none" xmlns="http://www.w3.org/2000/svg">
<path d="M412.716 16.9313C412.47 17.2215 411.257 18.1451 410.782 18.6005C410.978 17.7032 413.607 15.8837 412.716 16.9313ZM388.588 91.0009C388.905 90.5375 389.223 90.0741 389.54 89.6107C388.329 90.5831 386.844 92.0486 385.689 92.9168C385.5 93.0583 385.698 92.3646 385.272 92.724C384.846 93.0837 385.277 93.4023 384.712 93.9855C384.077 94.6386 380.738 97.1477 379.672 98.1175C375.687 101.746 371.845 105.602 367.683 109.05C371.57 105.034 367.127 108.495 366.078 109.664C365.847 109.925 366.54 110.613 362.216 114.169C359.468 116.429 360.977 113.197 357.033 117.682C361.078 115.359 357.696 118.306 355.058 120.72C354.603 121.137 350.803 124.355 349.196 125.857C348.646 126.371 348.135 127.517 347.402 128.194C346.897 128.66 346.324 128.799 345.575 129.492C342.081 132.716 338.618 135.858 335.013 138.971C336.205 136.133 333.014 140.015 332.806 140.117C331.724 140.61 335.473 137.105 333.814 138.295C331.732 140.221 329.65 142.147 327.567 144.073C329.406 142.637 326.015 146.955 324.987 147.301C326.089 147.872 314.698 155.19 313.443 156.838C313.183 157.182 315.629 155.755 310.669 159.86C310.131 160.304 310.093 159.868 309.843 160.136C309.693 160.297 309.452 162.01 307.991 162.496C307.457 162.674 309.421 159.926 304.232 164.985C307.134 163.9 297.175 172.152 295.216 173.53C295.671 173.326 296.126 173.122 296.581 172.917C294.559 174.183 294.501 174.753 294.093 175.091C292.449 176.455 290.008 178.127 288.553 179.482C286.85 181.067 287.315 181.597 285.115 183.205C285.698 182.891 286.28 182.576 286.863 182.262C285.445 183.486 284.027 184.71 282.609 185.934C285.211 182.341 281.883 186.526 281.638 186.773C281.249 187.169 281.585 186.353 280.928 187.008C280.862 187.077 281.205 187.252 280.17 188.237C278.006 190.293 278.055 189.642 277.127 190.483C277.043 190.562 277.558 190.534 276 192.037C271.048 196.816 275.859 191.83 276.026 191.62C276.244 191.345 273.585 191.914 278.251 188.366C276.69 189.564 276.143 189.25 275.969 189.387C275.815 189.508 273.344 191.843 273.218 191.983C272.112 193.251 273.479 192.573 273.285 192.845C273.127 193.067 269.725 195.407 269.834 196.964C267.618 197.429 269.983 195.444 272.31 193.118C272.511 192.624 269.676 194.867 269.535 194.995C266.075 198.107 268.616 197.079 268.258 198.203C268.07 198.793 266.233 199.586 268.095 199.039C265.013 201.928 266.594 199.855 266.343 199.984C265.966 200.181 265.027 201.347 264.868 201.447C264.635 201.593 265.143 200.747 264.278 201.386C264.136 201.494 263.186 203.018 265 201.709C262.743 203.643 263.209 203.795 261.886 203.831C261.448 206.406 260.141 204.111 259.48 204.582C257.726 205.836 259.04 206.368 258.997 206.49C258.683 207.307 253.978 210.948 253.008 212.066C252.826 210.996 256.499 208.915 257.066 208.166C258.957 205.671 253.537 210.721 254.427 208.371C253.942 209.233 253.458 210.094 252.973 210.955C251.201 211.551 252.796 209.683 249.542 212.972C249.408 213.952 251.903 210.714 251.64 211.628C251.484 212.166 249.535 214.003 249.6 214.154C249.686 214.329 251.337 212.546 251.247 213.015C251.044 214.035 244.081 219.496 248.852 214.75C247.465 216.011 245.918 215.735 244.967 217.109C244.353 217.998 249.895 215.318 243.087 221.015C242.555 220.706 245.609 218.515 245.652 218.418C245.71 218.278 244.325 217.748 244.194 217.778C243.743 217.895 237.476 224.477 235.609 225.263C236.683 225.324 230.608 229.941 230.147 230.667C230.026 230.862 230.952 230.659 230.809 230.853C229.912 232.055 226.397 234.093 225.01 235.31C223.458 236.672 223.922 236.798 223.836 236.874C223.145 237.465 223.502 236.776 223.089 237.148C222.466 237.71 218.14 241.522 217.963 241.758C217.912 241.828 218.92 241.542 218.043 242.447C217.892 242.604 217.629 242.105 215.018 244.769C211.873 247.977 217.788 243.194 216.785 244.865C214.098 246.184 214.708 246.722 214.084 247.197C213.868 247.36 211.912 248.195 210.315 249.688C211.408 248.556 212.5 247.425 213.592 246.294C212.365 247.235 210.237 249.347 209.201 250.095C208.696 250.46 208.698 249.699 207.707 250.61C207.499 250.806 207.575 252.586 209.785 249.77C210.323 249.947 208.861 250.831 208.375 251.455C208.302 251.549 208.505 252.47 207.424 252.755C207.163 252.821 207.497 249.305 203.669 255.073C203.546 255.259 204.304 254.98 204.189 255.167C204.11 255.295 202.756 256.349 202.644 256.507C202.53 256.67 203.364 256.361 203.236 256.562C202.579 257.598 200.56 257.669 202.436 256.115C201.724 256.54 201.012 256.964 200.3 257.389C201.601 257.534 199.533 258.447 198.716 259.222C193.48 264.187 197.498 261.431 196.795 262.505C195.665 264.231 195.679 261.968 193.813 264.321C193.641 264.539 196.778 262.675 191.312 267.048C192.06 266.338 192.809 265.628 193.558 264.918C192.483 264.612 190.831 267.456 190.661 267.627C188.706 269.558 189.858 268.064 187.153 271.15C186.911 271.426 186.166 271.782 185.665 272.389C183.586 274.902 189.025 269.76 189.433 269.908C189.631 269.983 183.614 275.327 183.349 275.445C182.212 275.936 185.946 272.878 184.935 273.127C184.569 273.222 176.277 281.154 174.438 282.55C172.315 284.16 170.569 284.006 171.519 285.088C170.016 284.538 170.169 285.697 169.91 285.917C166.768 288.565 166.753 288.559 164.224 291.014C163.666 291.555 162.891 291.675 162.735 291.913C162.645 292.052 163.174 292.194 162.686 292.823C162.005 293.695 156.821 297.72 156.289 297.856C155.758 297.992 158.272 295.926 157.559 296.005C155.781 297.547 154.172 299.132 152.38 300.683C151.635 301.326 151.816 300.771 151.496 301.05C151.359 301.169 149.004 303.631 149.183 303.615C149.602 303.576 157.292 296.438 155.579 298.665C155.249 299.095 153.398 299.853 154.168 300.261C147.072 306.388 139.977 312.515 132.882 318.642C136.478 314.587 141.352 310.944 145.509 307.131C146.079 306.609 148.076 304.92 147.563 304.825C143.924 307.952 139.632 312.098 136.026 314.976C135.911 315.068 136.065 314.43 135.615 314.755C134.774 315.363 132.675 318.055 132.151 318.317C132.055 318.355 133.15 316.712 132.509 316.869C130.865 317.273 131.766 318.842 130.798 319.685C130.048 320.336 124.515 324.157 123.641 325.67C122.713 327.279 127.521 322.633 127.469 323.313C124.423 326.687 120.68 329.371 117.542 332.27C117.487 332.321 118.22 332.159 117.546 332.835C116.372 334.01 115.698 333.912 115.042 334.389C114.335 334.905 112.095 337.019 111.661 337.152C111.605 337.168 111.722 336.365 111.782 336.291C112.637 335.235 113.442 335.418 113.538 335.343C113.897 335.055 114.059 334.562 114.38 334.294C114.91 333.853 115.351 333.777 116.042 333.185C116.518 332.777 115.762 332.841 116.225 332.452C116.397 332.311 118.877 331.491 118.328 330.546C118.154 330.249 103.307 343.009 102.033 344.518C103.367 343.492 104.701 342.466 106.035 341.44C103.291 343.484 100.817 346.856 99.7569 346.11C90.2889 354.479 80.8209 362.849 71.3529 371.219C69.6026 372.647 69.98 371.216 67.3768 373.873C68.2634 373.424 69.1498 372.976 70.0363 372.527C68.4999 373.663 61.9919 379.035 61.089 380.072C60.9723 380.206 61.2812 380.917 59.7565 382.372C58.4034 383.663 57.8119 383.454 56.9979 384.044C56.3157 384.54 55.7112 385.277 55.5057 385.421C55.3473 385.531 55.0659 385.331 54.6847 385.594C53.4837 386.429 54.9926 386.349 53.1929 386.502C53.4261 386.236 53.6592 385.971 53.8924 385.706C52.4842 386.759 50.3734 387.991 52.1297 386.085C52.4315 385.757 52.366 386.254 52.6117 386.033C62.2088 377.326 54.0894 383.771 51.0503 387.183C49.8602 387.603 45.196 392.191 44.9709 392.266C44.6541 392.365 45.2281 391.33 43.9149 392.063C43.6384 392.216 37.3194 398.258 39.2309 395.678C39.6253 395.145 42.8346 392.448 43.5732 391.759C41.1216 392.586 37.9584 397.4 37.4674 397.791C35.4813 399.362 40.4851 393.887 36.1715 397.603C32.8548 400.461 36.3682 398.223 35.311 399.565C34.7167 400.319 30.529 403.07 31.2807 403.705C30.0856 404.919 30.4807 403.87 30.2998 403.983C30.1252 404.096 27.8339 406.548 26.8892 407.12C26.7743 407.189 26.7437 406.535 26.6148 406.595C26.3705 406.72 24.0402 408.95 23.9725 409.069C23.9311 409.146 24.7993 408.962 24.6363 409.253C24.4453 409.592 22.0679 411.588 22.0255 411.796C21.9738 412.101 24.7384 409.446 24.5951 410.242C23.1985 411.329 21.2804 413.498 20.6806 414.574C20.8166 414.298 22.0789 413.142 22.5478 412.775C22.8253 413.502 20.085 415.952 20.6352 414.684C20.2476 415.447 20.7627 415.205 20.623 415.722C20.5845 415.856 19.7507 416.626 19.672 416.866C19.6677 416.903 20.7218 416.325 20.6461 416.591C20.5086 417.073 17.9092 419.329 17.653 419.465C16.9311 419.847 18.8573 417.793 18.8265 417.409C18.8198 417.352 16.6436 418.5 16.5813 418.485C16.0971 418.155 18.3461 416.685 17.7777 416.507C17.217 416.865 16.6563 417.223 16.0955 417.582C17.6325 415.503 21.2961 412.569 21.8002 411.323C19.1246 413.963 16.1875 416.575 15.3052 415.581C14.933 415.163 15.9186 413.836 15.7769 413.772C15.2587 413.553 13.9558 415.467 13.8763 415.503C13.8047 415.525 13.7613 415.524 13.7416 415.502C13.7416 415.502 13.7416 415.502 13.7416 415.502C13.5424 415.28 15.7833 412.977 15.8117 412.769C15.8505 412.409 14.1239 412.622 13.9783 412.457C13.9858 412.39 15.5263 410.689 14.6966 410.918C13.8575 411.151 12.3653 412.48 12.2864 412.497C11.8473 412.579 14.3055 410.085 14.2914 409.914C14.2859 409.825 12.6052 410.763 12.4826 410.709C12.3657 410.648 13.2475 409.496 13.4064 408.831C13.5255 408.337 12.4702 408.988 12.5995 408.811C12.6936 408.686 15.1533 406.483 15.2403 406.336C15.3701 406.119 14.5645 406.38 14.5907 406.241C14.6267 406.042 15.503 405.421 15.3147 405.419C15.1736 405.418 11.3048 407.299 11.1128 407.045C10.7865 406.612 14.8748 404.61 10.418 405.746C10.3874 405.755 9.75121 406.531 9.72182 406.539C9.0042 406.656 10.965 404.082 8.14419 406.759C13.067 401.418 8.27011 405.553 8.45722 404.16C8.5306 403.624 10.5192 401.642 10.4938 401.595C9.99432 401.446 9.5602 402.3 9.18881 402.341C8.98316 402.362 10.535 400.336 9.91128 400.487C9.58927 400.565 7.64625 402.386 7.54401 402.437C6.56718 402.926 7.32003 401.831 7.01069 401.833C6.80418 401.833 5.60209 402.899 5.55435 402.909C5.46952 402.915 6.72033 401.044 6.92769 400.594C7.08403 400.252 5.96208 400.943 6.09753 400.733C6.91567 399.471 9.88235 398.149 6.73099 399.097C6.53827 399.155 5.72382 399.933 5.68774 399.943C4.90448 400.112 6.4239 398.701 6.48245 398.211C6.58156 397.368 4.57358 399.593 6.15372 397.643C4.52574 398.613 3.76529 399.317 2.21524 400.848C6.50565 396.609 7.11757 394.108 2.16702 398.606C3.7647 397.201 3.04183 396.75 3.50427 396.315C3.79256 396.045 6.63132 394.588 4.35831 394.175C4.07371 394.124 2.87363 395.592 2.99806 394.853C6.42314 391.935 2.87036 394.568 2.8257 394.525C2.14978 393.686 10.9133 386.995 12.2358 385.642C13.7707 384.071 14.6523 382.139 15.0059 381.82C16.1713 380.772 15.4917 381.961 15.8581 381.845C16.2272 381.724 18.9905 378.132 19.1863 378.017C19.9499 377.575 19.6393 378.54 19.7232 378.499C20.7272 378.017 24.9118 373.72 26.2372 372.688C25.9776 372.476 23.4577 374.706 24.6647 372.906C26.0696 370.811 27.1489 371.802 27.2394 371.807C35.565 364.306 43.8908 356.806 52.2165 349.305C51.5939 348.821 46.5357 354.154 46.3436 354.189C45.2113 354.393 54.4241 346.129 55.7365 345.318C54.7665 345.964 53.7967 346.61 52.8267 347.256C53.6951 345.276 57.7118 343.225 59.5672 341.028C60.1663 340.318 58.6218 341.243 58.6332 341.201C59.1709 340.252 60.5837 339.341 59.9718 340.517C61.5517 338.498 61.6062 339.11 63.0719 337.842C63.1471 337.777 62.2879 338.065 63.3282 336.929C63.8159 336.397 66.6646 333.836 66.8355 333.259C66.9038 333.019 64.525 333.279 65.1499 334.334C61.6592 336.683 64.5258 335.631 63.3032 336.692C63.1145 336.854 63.0907 335.973 60.2699 338.933C60.0388 337.514 64.1348 335.049 64.6354 334.402C65.6683 333.069 60.1645 337.175 59.8617 338.715C59.6667 337.621 59.4159 338.945 58.2561 339.935C56.9869 341.019 57.3399 340.324 56.6674 340.926C54.8262 342.571 56.033 342.383 54.1174 343.296C56.8365 343.353 51.6895 345.808 50.1786 346.511C52.0442 344.708 53.9098 342.904 55.7755 341.101C55.5999 341.127 55.4244 341.154 55.2489 341.18C55.7661 340.734 56.2834 340.287 56.8007 339.841C56.7818 339.984 56.7631 340.127 56.7441 340.27C58.957 337.463 60.0533 337.397 60.272 337.211C63.0748 334.798 66.2471 331.94 69.0288 329.443C69.4461 329.068 68.7529 328.873 72.1117 326.495C73.1829 325.737 72.5838 326.912 73.6356 325.871C74.1505 323.678 74.8105 324.465 75.2205 324.099C76.3935 323.044 76.8974 322.163 77.0036 322.063C78.4198 320.723 80.5783 318.855 82.1387 317.389C82.1653 317.358 81.0726 317.809 82.1849 316.967C82.5762 316.671 86.9617 314.999 89.4417 312.03C88.6249 312.611 87.8081 313.192 86.9913 313.773C87.9687 313.109 93.787 307.308 91.9929 308.313C90.8936 308.93 89.3876 311.746 88.4435 311.188C90.6835 309.596 101.587 299.168 102.622 298.564C102.766 298.481 102.25 299.401 102.446 299.284C102.597 299.192 105.112 296.824 105.541 296.614C105.795 296.489 104.799 297.664 104.973 297.672C105.112 297.664 108.418 294.889 108.317 294.408C107.643 295.243 105.329 297.122 106.251 295.812C106.37 295.645 107.328 295.153 107.471 294.948C108.807 293.047 103.858 297.662 103.077 298.359C105.875 295.115 111.192 291.197 114.618 287.642C116.335 286.576 112.786 290.017 114.657 288.73C118.537 286.061 115.254 287.536 115.331 287.405C115.955 286.364 120.174 285.147 119.201 284.062C120.607 283.093 120.323 283.596 121.972 281.857C121.671 281.992 121.37 282.127 121.069 282.262C122.478 279.861 128.077 277.692 127.873 278.094C127.322 279.174 124.694 280.624 124.519 280.803C124.26 281.068 124.488 282.851 120.596 284.571C120.026 286.416 125.812 280.783 123.533 283.74C125.303 282 133.351 275.696 134.152 274.391C134.245 274.231 132.977 274.042 135.188 272.731C136.238 272.11 134.1 274.047 134.657 273.848C136.372 273.236 153.116 257.595 156.328 254.659C156.538 254.469 156.666 254.766 156.87 254.579C157.499 254.002 159.504 251.585 160.733 250.67C158.002 252.361 162.54 248.224 163.743 247.227C165.57 245.713 165.822 246.212 166.66 245.613C169.892 243.304 173.585 238.262 176.666 237.103C175.747 236.331 181.001 233.992 182.859 232.335C184.315 231.039 185.894 228.562 183.616 229.965C186.156 227.756 188.643 225.223 190.943 223.059C191.323 222.701 191.023 223.443 191.665 222.824C191.721 222.766 191.574 222.435 192.118 221.897C196.613 217.455 194.817 220.052 195.84 219.423C196.412 219.071 196.815 218.789 197.094 218.565C194.403 221.074 191.337 224.011 190.499 224.777C191.728 224.696 196.467 219.218 198.169 217.963C198.228 217.92 198.319 218.402 198.376 218.355C198.378 218.353 198.379 218.352 198.38 218.351C198.988 217.848 202.621 214.375 201.518 214.695C201.222 214.781 199.502 216.327 197.493 218.193C197.982 217.628 197.256 217.649 197.34 217.546C198.366 216.312 201.567 214.052 202.635 213.175C202.878 212.975 202.66 212.766 202.699 212.731C203.678 211.942 203.869 212.926 204.235 211.406C206.641 210.683 201.172 214.372 201.979 214.582C202.6 214.743 213.203 204.829 212.606 204.23C212.704 204.264 212.927 204.214 213.317 204.035C214.181 203.639 217.127 200.873 217.541 200.291C217.608 200.19 217.026 199.612 217.129 199.509C217.388 199.251 221.489 196.429 222.537 194.836C221.72 195.416 220.903 195.997 220.085 196.577C224.553 192.552 223.699 192.992 222.045 194.149C221.969 194.215 221.876 194.257 221.803 194.318C220.527 195.222 218.929 196.423 218.863 196.395C218.614 196.288 226.111 189.366 225.159 191.243C225.025 191.503 221.288 194.406 223.389 193.247C223.756 193.045 225.908 190.903 226.066 190.841C227.124 190.424 222.553 195.242 223.532 195.121C224.368 193.647 226.091 192.479 227.369 191.144C227.95 190.537 227.829 190.094 227.901 190.019C228.979 188.906 228.622 189.806 228.998 189.453C229.199 189.263 230.853 186.545 231.269 187.869C238.114 180.469 232.714 185.323 228.181 189.492C229.321 187.849 232.307 185.465 233.509 184.241C233.94 183.802 233.387 183.732 234.103 182.976C235.575 181.419 243.481 174.965 245.533 173.275C244.419 174.476 245.081 174.498 245.996 173.633C246.911 172.768 245.715 173.019 245.854 172.806C246.004 172.579 250.591 168.846 251.269 168.13C248.109 171.268 249.161 170.937 252.001 168.45C251.683 168.913 251.365 169.376 251.048 169.838C252.569 168.222 256.496 165.632 257.308 164.623C257.435 164.464 256.642 164.659 256.713 164.57C257.438 163.699 260.539 161.44 260.583 161.223C260.622 161.041 259.195 161.889 259.539 161.367C259.61 161.258 261.125 160.596 262.189 159.468C262.584 159.049 262.084 159.01 262.178 158.897C262.956 157.962 262.837 158.893 264.408 157.349C265.559 156.217 266.051 154.969 267.841 153.627C261.889 157.949 266.677 154.076 268.797 151.859C269.137 151.504 268.383 151.293 270.776 149.574C266.939 154.63 272.52 148.856 273.748 147.771C273.817 147.714 274.132 148.017 274.734 147.485C274.784 147.439 274.515 147.286 275.055 146.77C280.182 141.876 277.035 145.151 278.23 144.468C278.739 144.177 281.023 141.564 281.707 140.937C281.865 140.793 281.996 141.086 282.602 140.526C283.674 139.533 284.429 138.417 285.129 137.753C285.211 137.677 285.537 138.033 286.792 136.695C287.145 136.319 287.459 135.806 286.824 136.191C284.719 137.468 281.833 141.124 279.494 142.613C277.362 143.972 283.185 138.686 283.487 138.411C283.598 138.309 282.616 139.514 283.808 138.506C284.826 137.645 286.08 135.397 287.678 134.205C287.8 134.114 289.452 133.579 289.426 133.658C289.396 133.725 287.687 135.468 288.086 135.384C288.134 135.373 289.282 134.334 289.534 134.312C289.842 134.285 291.555 135.192 291.832 135.005C292.538 134.522 291.85 134.582 292.278 134.237C293.194 133.495 296.59 131.167 296.267 130.609C295.741 131.032 295.214 131.455 294.687 131.878C297.435 129.321 296.066 130.19 296.382 129.747C296.723 129.269 296.973 129.789 297.949 128.982C298.161 128.807 302.021 125.183 301.794 125.074C299.864 127.306 300.213 126.071 300.105 126.152C299.693 126.462 299.463 127.186 298.946 127.64C295.307 130.83 298.531 127.116 297.577 127.764C297.25 127.988 296.886 128.755 296.751 128.854C296.311 129.176 296.018 128.863 295.772 129.13C295.198 129.755 296.337 129.548 296.309 129.616C296.002 130.403 293.487 132.027 294.414 130.305C293.433 130.866 293.874 131.55 293.008 131.897C291.287 132.587 293.337 130.965 293.792 130.414C295.423 128.436 296.188 128.163 298.787 125.686C299.723 124.794 300.601 123.48 301.032 123.064C301.304 122.801 304.865 121.428 303.522 119.776C304.691 119.002 307.245 118.591 308.265 117.588C309.179 116.688 308.373 116.401 308.443 116.299C308.549 116.142 309.742 115.15 310.061 114.72C310.434 114.216 310.014 114.207 310.661 113.469C312.272 111.63 312.738 112.244 312.957 112.115C315.496 110.608 313.823 110.643 314.242 110.148C314.633 109.689 321.148 104.399 322.275 103.014C321.844 103.609 321.413 104.203 320.982 104.797C322.258 104.295 322.748 102.803 323.34 103.426C322.607 102.22 325.199 101.137 325.768 100.578C325.992 100.357 325.815 100.198 326.101 99.9279C327.215 98.8711 329.914 96.6977 330.454 96.0522C332.787 93.2618 325.365 98.7775 324.792 99.2235C325.881 98.2651 331.779 92.5473 328.527 94.5735C328.024 94.8868 327.67 96.0392 327.443 96.2762C325.901 97.8771 326.826 96.2979 326.661 96.3747C326.384 96.5087 325.658 97.8841 325.329 98.0938C325.22 98.1644 325.498 97.2369 323.919 98.6424C324.366 97.5842 329.052 93.9073 329.556 93.3008C329.735 93.0847 327.743 93.4726 332.203 90.8264C332.095 90.7938 331.986 90.7612 331.877 90.7286C333.957 88.8058 336.037 86.8831 338.117 84.9603C338.037 85.332 337.154 86.7282 338.58 85.3188C339.401 84.5071 338.434 84.7078 338.503 84.6267C339.181 83.8333 352.913 71.7147 355.516 69.3011C356.402 68.4807 358.638 65.9342 358.824 65.7571C359.939 64.7018 364.154 61.2633 364.922 60.4968C365.401 60.0175 364.645 60.1386 365.108 59.7489C365.538 59.3871 365.374 60.075 365.509 59.9759C366.635 59.1599 374.095 51.7472 376.204 50.3618C374.994 51.2962 369.872 56.9776 370.175 57.086C370.226 57.0928 371.805 56.0842 371.989 55.7184C372.69 55.5559 373.591 53.3225 374.606 52.6907C374.72 52.6193 374.727 53.4112 376.361 52.0876C376.924 51.6315 378.024 50.0211 379.789 49.1326C381.675 47.1023 392.983 37.9754 393.297 36.8354C393.296 36.7907 391.63 37.9932 392.481 36.8756C393.614 35.39 393.171 37.3636 394.83 36.009C395.08 35.805 399.427 31.7388 399.524 31.5546C400.425 29.8605 396.378 33.1381 396.381 33.0326C396.388 32.7681 399.524 29.7933 399.685 29.7096C399.84 29.633 397.802 32.6369 400.731 29.5605C400.3 29.8073 399.87 30.0541 399.439 30.3008C400.785 28.8188 401.329 29.1404 401.713 28.8454C402.906 27.9296 403.501 26.1637 406.045 25.399C406.718 25.1976 406.156 26.1507 406.245 26.1311C407.083 25.9214 407.085 24.4664 408.478 24.2989C408.582 24.2859 406.918 26.4307 410.392 23.3109C410.101 23.4682 409.81 23.6255 409.52 23.7827C409.894 23.2143 413.341 19.9783 413.842 19.5836C415.303 18.4305 414.469 19.9262 415.814 18.6287C414.414 18.8636 418.571 14.9943 418.766 15.6996C418.806 14.5578 422.818 11.8055 424.518 10.3043C425.59 9.35669 427.52 7.1391 427.886 6.86647C428.333 6.53456 428.583 7.06431 429.41 6.48882C429.646 6.32472 431.585 4.02913 433.916 2.71456C434.368 2.45932 435.795 2.45623 435.254 3.26223C434.328 4.64176 431.549 6.10862 431.953 6.50086C432.389 6.9177 435.203 3.90789 436.078 3.22777C440.114 0.088318 438.351 2.53272 438.578 2.58919C439.145 2.71167 441.209 0.837862 441.323 0.791579C441.807 0.609139 440.587 2.20615 440.757 2.4396C440.98 2.74167 443.429 1.44772 443.059 1.94966C442.528 2.6671 440.316 3.89919 440.218 4.0238C438.945 5.65552 441.599 4.4309 442.455 4.23194C442.716 4.17304 442.168 4.95407 442.337 4.85322C444.922 3.31119 441.989 3.5344 443.53 2.31052C444.905 1.21849 443.608 3.14786 443.678 3.12637C443.766 3.09411 445.345 1.71643 445.723 1.64651C445.911 1.61324 442.597 6.07483 443.097 6.29091C444.317 5.04821 445.537 3.8055 446.756 2.56279C447.289 2.9517 445.112 4.26915 444.964 4.49145C444.667 4.93864 445.964 4.21146 446.054 4.40485C446.116 4.52371 445.159 6.00666 446.431 5.12006C446.868 4.8156 447.392 3.73721 449.133 2.79351C444.542 7.71323 448.239 4.87803 448.539 4.91599C448.836 4.95662 446.815 7.49585 449.641 4.82861C450.606 5.65011 449.844 5.17984 449.171 6.08181C448.346 7.18743 450.947 5.40611 447.061 8.47609C447.664 8.72549 450.59 6.03942 450.778 5.93375C450.942 5.84399 450.478 6.64928 450.778 6.51171C454.307 4.86765 452.058 6.1914 453.345 6.01011C453.46 5.99422 456.257 3.8417 454.335 5.71131C450.832 9.11717 448.758 9.86117 449.339 11.7344C452.541 9.89638 455.027 6.11686 455.83 5.36869C457.061 4.22483 456.009 5.65834 456.231 5.59569C456.307 5.57209 457.364 4.58205 457.397 4.59052C459.073 4.91098 452.619 8.91534 451.026 10.6646C451.631 10.3942 452.236 10.1237 452.842 9.85328C452.21 10.4316 451.579 11.0099 450.948 11.5881C454.255 9.16621 451.158 11.6072 451.137 13.1052C451.132 13.4416 452.842 11.3354 451.028 13.8894C452.811 12.5005 452.426 13.1483 453.737 11.5532C453.993 11.9164 450.909 15.3562 449.713 16.7353C454.804 12.8264 451.009 14.0627 455.695 11.0013C456.093 9.90945 454.2 11.7536 454.3 11.5426C454.658 10.7852 456.349 9.95734 457.216 7.65234C457.356 7.27588 455.852 7.85541 457.528 6.38694C457.714 6.22517 459.097 5.64104 459.106 5.68063C459.223 6.09205 458.082 6.92395 458.146 7.08193C458.207 7.23117 459.312 6.11576 459.344 6.14343C459.701 6.46907 458.494 7.15421 458.741 7.13462C459.277 7.09401 464.161 4.09606 458.487 8.7881C462.668 4.29897 458.714 7.87004 457.083 9.61608C456.667 10.0607 456.745 10.3771 456.168 11.0293C455.427 11.8689 454.367 12.6365 453.974 13.0604C453.552 13.5174 456.622 11.6716 452.703 14.9211C455.08 13.6932 458 10.1007 460.209 8.75366C464.666 6.03711 458.326 12.011 457.714 12.6865C457.551 12.8668 458.413 12.6138 458.309 12.7392C458.137 12.9424 454.341 16.1125 454.194 16.6771C454.047 17.2407 455.53 15.4561 455.867 15.603C456.095 15.7014 451.927 19.9839 454.431 17.941C456.156 16.5326 458.601 13.1183 459.765 13.3805C457.386 15.6272 455.006 17.8738 452.627 20.1205C454.206 19.1991 455.785 18.2776 457.365 17.3562C454.712 19.8979 452.072 21.7088 449.832 24.4342C456.858 19.7152 448.441 26.9572 448.447 27.1462C448.474 27.2378 451.571 25.7493 452.084 25.5256C450.158 27.7549 443.673 33.8261 448.332 31.2374C447.451 31.6681 446.196 33.6878 446.252 33.7049C446.818 33.9018 450.296 30.3187 450.009 31.2147C449.677 32.2536 448.196 32.5798 447.158 33.5923C441.838 38.7917 445.188 39.4687 439.355 44.1275C439.53 44.101 439.706 44.0746 439.881 44.0481C433.752 49.3472 427.623 54.6463 421.494 59.9454C419.697 62.6869 413.764 68.7045 410.62 71.4048C409.988 71.949 406.647 74.3597 406.366 74.509C405.842 74.7817 408.145 72.6362 406.902 73.3808C406.641 73.5392 401.36 78.0368 402.042 78.0539C402.656 77.5749 404.307 75.7743 404.677 75.5904C407.283 74.3078 390.962 88.1286 390.387 89.0727C390.841 88.8695 391.295 88.6662 391.748 88.4629C390.695 89.3089 389.642 90.1549 388.588 91.0009ZM409.536 21.5752C409.824 20.6843 411.569 19.5907 412.373 18.6911C413.481 17.4465 414.365 14.2176 414.677 16.3778C412.963 18.1102 411.25 19.8427 409.536 21.5752ZM382.625 44.8171C384.007 43.9146 383.744 45.5141 382.468 46.0944C382.326 46.158 380.757 46.0394 382.625 44.8171ZM395.666 33.7446C395.624 33.8005 394.557 34.7228 394.51 34.7438C393.298 35.2861 396.514 32.5073 395.666 33.7446ZM334.572 89.3479C335.879 88.114 334.295 88.2987 333.718 89.3276C333.681 89.3925 334.485 89.4285 334.572 89.3479ZM335.539 88.5115C337.128 88.1922 338.102 85.0693 336.552 86.6884C336.402 86.846 335.464 88.5249 335.539 88.5115ZM387.219 41.2304C387.294 41.5883 385.941 42.5994 385.356 43.0234C385.177 42.7956 386.719 41.7277 387.219 41.2304ZM355.548 69.8106C355.661 70.0432 360.002 66.124 360.079 65.614C359.486 66.3343 355.449 69.5995 355.548 69.8106ZM344.627 80.095C344.766 80.0279 346.225 78.6289 346.034 78.5052C345.108 78.9503 344 80.3965 344.627 80.095ZM322.445 100.009C322.401 100.123 324.459 100.15 321.178 101.863C320.697 102.115 321.851 100.587 321.679 100.675C321.322 100.864 321.061 101.037 320.871 101.197C322.035 99.9954 323.289 98.7956 323.471 98.7464C324.324 98.5172 322.466 99.9596 322.445 100.009ZM311.501 111.243C311.397 111.643 309.681 113.021 309.247 113.285C309.171 113.329 309.05 112.634 308.344 113.329C307.778 113.887 309.07 113.55 307.854 114.511C306.625 115.483 307.887 113.762 307.764 113.83C307.601 113.922 305.986 115.743 305.803 115.428C305.669 115.194 307.715 113.595 308.154 113.125C308.716 112.523 307.682 112.86 308.765 112.014C309.446 111.482 309.607 112.377 309.769 112.284C309.903 112.206 311.846 109.862 311.495 111.245C311.497 111.244 311.499 111.244 311.501 111.243ZM320.558 101.525C320.634 101.421 320.734 101.312 320.871 101.197C320.765 101.307 320.661 101.417 320.558 101.525ZM406.258 24.9777C405.467 25.367 407.135 23.4573 408.053 23.0527C408.233 23.2291 406.383 24.9151 406.258 24.9777ZM319.827 103.028C317.853 104.542 319.032 103.125 320.558 101.525C320.135 102.101 320.49 102.52 319.827 103.028ZM371.989 55.7184C371.873 55.7454 371.763 55.7229 371.658 55.6186C371.971 55.555 372.047 55.6031 371.989 55.7184ZM367.509 59.39C366.334 61.0507 369.32 58.3433 369.086 58.1207C368.995 58.0384 367.556 59.3236 367.509 59.39ZM332.828 90.856C332.992 90.7675 331.804 93.6627 334.166 90.1684C332.435 91.5093 334.05 89.8587 333.945 89.793C333.65 89.5981 331.141 92.2953 330.437 92.7283C330.373 93.6089 332.285 91.1485 332.824 90.8591C332.825 90.8581 332.827 90.857 332.828 90.856ZM290.302 129.851C290.432 129.252 291.682 128.283 292.488 127.588C292.358 128.187 291.108 129.155 290.302 129.851ZM83.1127 315.978C88.3154 310.857 89.9944 311.312 84.6454 315.343C84.5401 315.421 82.8825 316.384 83.1127 315.978ZM129.919 274.424C130.855 274.438 129.232 276.034 127.946 276.837C127.655 277.019 126.294 277.375 127.271 276.327C127.753 276.931 129.592 275.676 129.919 274.424ZM319.057 104.269C318.804 105.067 316.948 106.328 316.034 107.064C316.332 106.326 318.198 104.862 319.057 104.269ZM101.446 300.527C102.05 300.049 102.066 299.29 101.937 299.344C101.353 299.584 100.584 300.878 101.446 300.527ZM324.439 99.5208C324.684 99.6416 322.657 101.791 322.085 101.462C322.584 101.075 324.278 99.4511 324.439 99.5208ZM291.922 128.651C292.348 128.441 290.742 130.196 290.124 130.579C289.986 130.34 291.643 128.789 291.922 128.651ZM110.526 292.114C111.07 291.69 112.359 290.552 112.351 290.258C112.34 289.891 110.528 291.648 110.526 292.114ZM15.5851 378.085C15.4533 378.069 16.9497 375.749 17.9529 375.094C19.8597 373.853 15.7027 378.075 15.5851 378.085ZM96.2252 305.603C94.2585 306.662 96.3922 305.43 95.9507 305.081C94.8509 306.043 92.1298 308.451 94.3526 307.187C94.785 306.94 95.6947 306.031 96.2252 305.603ZM97.8387 304.402C97.8917 304.113 98.6767 302.646 97.6978 303.58C97.2458 304.013 96.9169 305.155 97.8387 304.402ZM27.6942 366.872C29.4695 365.937 22.6594 371.702 22.4113 371.81C22.2802 371.866 22.1855 371.894 22.1238 371.901C21.9841 372.235 20.7497 373.383 20.3416 373.22C20.739 372.907 21.7417 371.959 21.8899 371.884C21.9536 371.852 22.0036 371.831 22.0418 371.82C22.2556 371.169 27.3545 367.052 27.6942 366.872ZM39.0242 357.369C37.8526 359.396 36.736 358.744 36.8523 358.586C38.318 356.591 37.7496 358.323 37.8333 358.305C38.0065 358.244 39.0053 356.78 39.019 357.374C39.0207 357.372 39.0224 357.371 39.0242 357.369ZM30.0828 364.998C30.0254 365.071 28.6098 366.292 28.5396 366.329C27.1235 367.045 31.1282 363.588 30.0828 364.998ZM303.303 119.769C302.226 120.573 302.899 119.358 303.67 118.885C303.735 118.848 304.253 119.06 303.303 119.769ZM98.552 303.597C98.84 303.453 104.959 298.388 104.147 298.198C103.7 298.709 96.7542 304.477 98.552 303.597ZM142.779 264.074C141.734 265.006 142.438 263.506 143.154 263.186C143.42 263.067 143.042 263.839 142.779 264.074ZM327.783 97.303C328.627 96.0678 329.199 97.1536 327.989 97.6923C327.942 97.7135 327.75 97.3513 327.783 97.303ZM134.215 271.272C137.543 267.755 138.061 270.041 132.932 273.722C133.017 273.523 133.102 273.324 133.187 273.125C127.594 277.738 132.722 273.348 133.965 272.078C134.437 271.595 133.788 271.718 134.209 271.273C134.211 271.273 134.213 271.273 134.215 271.272ZM148.28 259.184C152.708 257.157 145.475 262.385 143.708 264.227C145.143 262.132 147.593 260.052 143.933 262.516C148.605 258.157 147.014 260.365 147.235 260.23C147.496 260.069 148.091 259.27 148.28 259.184ZM139.166 267.387C138.995 267.598 137.291 268.731 136.781 269.255C137.208 268.204 140.3 265.98 139.166 267.387ZM50.3229 346.762C50.4576 347.164 50.3399 347.655 49.0543 348.615C49.2908 348.139 49.9376 347.332 50.3229 346.762ZM412.047 22.0697C412.884 21.3549 414.611 19.9993 413.838 20.1444C413.76 20.1676 411.896 21.8968 412.047 22.0697ZM115.908 288.423C116.114 288.302 120.637 284.28 118.796 285.359C118.24 285.684 114.181 289.406 115.908 288.423ZM92.5644 309.336C92.9438 309 94.4254 307.57 94.3964 307.473C94.2875 307.143 92.5256 308.962 92.5644 309.336ZM416.441 18.6552C416.576 18.5884 419.028 16.2886 418.627 16.3953C417.867 16.5988 415.979 18.8839 416.441 18.6552ZM300.29 123.701C300.091 123.899 299.532 123.834 299.457 123.895C299.283 124.043 295.566 127.602 296.665 125.885C296.848 125.599 302.491 120.807 303.243 120.204C303.907 120.386 301.188 122.089 300.655 122.647C300.562 122.746 300.822 123.165 300.29 123.698C300.29 123.699 300.29 123.7 300.29 123.701ZM44.4056 352.632C44.4832 353.057 40.1492 357.28 39.9028 356.901C41.4038 355.478 42.9047 354.055 44.4056 352.632ZM46.7307 350.624C47.8646 349.956 45.675 352.039 44.9357 352.549C44.7628 352.371 46.5655 350.721 46.7307 350.624ZM102.014 302.695C102.406 302.222 100.657 303.071 100.898 302.713C101.053 302.486 102.198 301.728 102.408 301.314C102.463 301.192 101.095 301.742 100.812 302.026C100.408 302.428 101.085 302.355 100.625 302.772C99.0972 304.156 97.5483 305.166 96.1154 306.463C95.9866 306.581 97.1809 305.885 96.0711 306.877C95.9001 307.031 94.5924 307.643 93.3095 308.88C91.2508 312.472 88.2529 313.455 84.8535 317.139C85.0751 317.104 88.0696 314.852 88.2412 314.715C91.4861 312.085 97.0599 307.107 100.311 304.189C101.146 303.441 100.558 303.601 100.91 303.27C101.189 303.01 101.191 303.691 102.014 302.695ZM411.8 22.6692C412.529 22.6959 413.683 21.2274 414.574 20.4614C413.961 20.3976 412.729 21.9853 411.8 22.6692ZM67.1837 332.772C67.6087 332.364 69.0691 331.257 69.0792 331.042C69.0905 330.764 67.0459 332.432 67.1837 332.772ZM278.625 142.977C278.592 143.025 277.52 143.952 277.47 143.976C276.256 144.52 279.473 141.741 278.625 142.977ZM253.349 165.561C252.592 166.326 251.891 167.168 251.348 167.103C251.899 166.693 253.251 165.264 253.349 165.561ZM218.576 196.827C219.101 197.08 216.462 198.982 215.976 199.354C215.984 199.025 218.195 196.647 218.576 196.827ZM51.627 347.865C50.1351 349.163 50.9912 349.491 49.8106 350.056C49.6165 350.146 47.9876 349.324 50.0299 348.345C50.3973 348.169 49.5293 349.492 51.627 347.865ZM132.16 274.392C132.024 274.994 130.784 275.965 129.976 276.654C129.976 276.298 131.615 274.916 132.16 274.392ZM421.229 14.901C422.255 14.6555 425.192 11.5139 424.182 11.9752C424.04 12.0437 421.689 14.5133 421.229 14.901ZM316.405 108.838C315.359 110.311 318.156 107.962 318.755 106.904C318.384 107.271 316.476 108.739 316.405 108.838ZM227.126 189.537C227.074 189.606 225.658 190.827 225.583 190.868C224.167 191.584 228.172 188.128 227.126 189.537ZM262.077 158.597C261.794 159.29 258.325 162.054 257.368 162.474C257.76 161.481 262.426 157.736 262.077 158.597ZM57.5231 342.255C56.4854 343.21 55.4227 344.03 54.3647 344.791C54.3839 344.404 57.2752 342.202 57.5231 342.255ZM222.045 194.149C221.969 194.215 221.876 194.257 221.803 194.318C221.885 194.26 221.966 194.204 222.045 194.149ZM81.1346 321.295C82.0862 320.585 81.5674 320.375 81.503 320.412C80.7325 320.886 80.0574 322.098 81.1346 321.295ZM413.304 22.3221C413.912 22.386 415.155 20.7951 416.078 20.111C415.592 20.066 413.957 21.6709 413.304 22.3221ZM152.604 256.548C154.038 255.921 149.926 260.386 148.767 261.001C148.494 260.837 152.397 256.643 152.604 256.548ZM320.932 105.686C321.258 105.871 322.858 103.856 322.345 104.091C322.019 104.24 320.731 105.569 320.932 105.686ZM146.368 262.878C146.019 263.338 144.8 263.961 145.003 263.491C145.264 262.887 146.456 262.756 146.368 262.878ZM108.674 297.136C108.895 297.011 111.134 294.508 109.866 295.16C108.985 295.612 109.216 296.096 109.05 296.248C108.861 296.414 104.455 299.528 108.674 297.136ZM177.983 234.158C177.137 235.101 175.898 236.001 174.925 236.89C175.177 236.367 177.389 234.299 177.983 234.158ZM313.718 112.297C314.042 112.199 320.297 106.694 316.481 109.529C316.258 109.694 312.736 112.593 313.718 112.297ZM51.627 347.865C51.8152 347.701 52.0405 347.522 52.3123 347.325C52.0565 347.536 51.8259 347.711 51.627 347.865ZM68.3651 332.895C68.1998 333.392 69.9517 331.911 70.3628 331.356C70.3063 330.981 68.3875 332.826 68.3651 332.895ZM175.092 237.225C174.626 237.843 173.495 238.647 172.807 239.288C172.764 239.003 174.684 237.263 175.092 237.225ZM214.941 201.778C213.724 202.679 212.388 203.969 212.563 204.207C212.509 204.193 212.422 204.206 212.299 204.251C212.175 204.296 211.065 205.478 210.476 205.873C206.951 208.237 222.312 194.764 214.06 203.298C214.354 202.791 214.648 202.284 214.941 201.778ZM266.996 155.108C267.873 154.803 269.356 152.866 268.798 153.177C268.411 153.395 266.118 155.413 266.996 155.108ZM242.639 177.283C242.872 177.16 244.445 175.408 244.364 175.228C243.23 175.979 241.574 177.841 242.639 177.283ZM272.171 151.022C272.607 150.703 272.731 149.815 272.667 149.839C272.12 150.047 271.285 151.386 272.171 151.022ZM55.7146 346.286C56.4198 345.875 58.0354 343.86 58.1929 343.205C58.319 343.191 58.5905 343.077 59.0471 342.822C59.046 342.823 59.0448 342.824 59.0437 342.825C59.6591 342.479 75.0906 328.838 64.3237 337.525C63.9863 337.797 64.6549 337.657 63.3052 338.788C63.2157 338.863 62.9857 338.693 62.7095 338.923C62.0748 339.454 58.6823 342.266 58.1746 343.025C58.1344 342.991 58.0589 342.993 57.9382 343.04C56.8612 343.466 55.1679 346.606 55.7146 346.286ZM239.222 180.423C239.642 180.186 240.685 179.116 240.635 178.829C240.004 179.233 238.247 180.974 239.222 180.423ZM314.588 112.878C315.437 112.387 316.992 110.479 316.311 110.82C315.893 111.029 313.609 113.444 314.588 112.878ZM250.242 170.342C245.954 173.804 249.281 171.238 248.896 172.071C249.345 171.494 249.793 170.918 250.242 170.342ZM36.1463 362.614C36.8546 362.09 36.5652 363.311 35.5874 363.668C35.2795 363.779 35.7509 362.909 36.1463 362.614ZM6.8234 389.265C7.80406 389.236 4.83449 391.404 5.60436 390.127C5.64377 390.072 6.76746 389.283 6.8234 389.265ZM27.5902 370.95C27.7447 370.231 27.9991 369.934 29.3184 368.892C27.5521 370.642 29.5205 369.386 27.5902 370.95ZM212.606 204.23C212.588 204.224 212.573 204.22 212.563 204.207C212.582 204.211 212.595 204.219 212.606 204.23ZM275.945 147.48C276.701 147.292 278.119 145.981 277.446 146.092C277.382 146.104 275.974 147.091 275.945 147.48ZM58.1929 343.205C58.081 343.218 58.0874 343.155 58.1746 343.025C58.2125 343.056 58.2141 343.117 58.1929 343.205ZM268.433 154.631C268.302 154.382 266.046 156.267 265.98 156.37C265.041 157.849 267.542 155.454 268.433 154.631ZM329.295 100.176C329.388 100.054 328.191 100.183 327.93 100.789C327.728 101.258 328.945 100.636 329.295 100.176ZM23.4697 374.89C22.7774 375.511 21.8032 376.387 21.4 376.3C21.898 375.921 23.3201 374.694 23.4697 374.89ZM8.19531 388.649C8.75058 387.622 10.6197 385.943 11.856 384.919C12.2239 385.284 8.88176 387.869 8.19531 388.649ZM53.7083 347.83C53.7791 347.794 55.6179 346.349 55.1492 346.305C54.4636 346.238 53.0928 348.13 53.7083 347.83ZM325.675 102.927C325.058 103.802 327.334 102.742 327.774 101.585C328.001 100.991 325.779 102.78 325.675 102.927ZM280.748 143.807C281.639 142.737 278.862 144.753 278.749 145.341C279.24 144.939 280.432 144.187 280.748 143.807ZM246.146 175.396C250.071 173.272 247.04 173.435 246.58 174.074C246.515 174.164 246.051 175.448 246.146 175.396ZM430.633 9.25679C430.992 8.73825 428.938 9.87803 428.949 10.3335C428.957 10.617 430.402 9.58816 430.633 9.25679ZM197.094 218.565C197.228 218.44 197.361 218.316 197.493 218.193C197.404 218.296 197.276 218.419 197.094 218.565ZM290.98 136.493C287.723 137.438 288.721 138.068 288.519 138.241C288.082 138.613 286.824 139.207 286.064 139.978C286.874 139.027 287.684 138.076 288.493 137.125C287.695 137.7 281.013 142.975 281.041 143.272C281.079 143.695 282.995 141.829 283.073 141.799C283.185 141.756 284.129 142.181 284.337 142.042C284.679 141.812 289.976 137.079 290.98 136.493ZM252.786 169.209C252.192 169.591 251.793 169.445 251.612 169.728C251.551 169.825 251.777 170.103 251.558 170.424C251.967 170.019 252.377 169.614 252.786 169.209ZM294.162 131.851C295.097 131.598 292.103 134.066 291.978 134.112C291.286 134.335 293.398 132.057 294.162 131.851ZM269.737 153.887C269.859 153.811 272.164 151.923 271.984 151.758C271.275 152.147 268.278 154.768 269.737 153.887ZM251.228 170.753C250.422 171.421 248.711 172.475 249.239 172.724C249.24 172.723 249.242 172.722 249.243 172.721C249.904 172.065 250.566 171.409 251.228 170.753ZM323.779 106.161C325.794 105.503 324.386 105.311 322.924 106.252C322.795 106.886 323.449 106.269 323.779 106.161ZM328.82 102.49C329.324 102.245 333.344 98.4043 332.41 98.6334C332.078 98.7145 329.974 101.154 329.843 101.229C329.646 101.344 330.069 100.289 328.868 101.502C329.056 101.562 328.648 102.575 328.82 102.49ZM325.339 105.497C327.208 104.695 326.725 103.51 325.646 104.476C325.223 104.853 325.072 105.611 325.339 105.497ZM319.418 110.68C320.01 110.301 321.495 109.191 322.174 108.043C320.884 109.156 319.595 110.269 318.305 111.381C318.311 111.681 318.9 111.01 319.422 110.677C319.421 110.678 319.42 110.679 319.418 110.68ZM1.64733 398.68C3.01377 397.91 0.478693 400.364 0.311723 400.402C-0.203639 400.491 1.03643 399.024 1.64733 398.68ZM446.832 9.39803C447.239 9.21498 447.745 9.36206 448.285 8.56201C447.363 8.94555 446.442 9.3291 445.521 9.71265C445.483 10.7648 446.386 9.5971 446.832 9.39803ZM451.355 9.05241C451.268 9.15495 452.587 9.53524 450.789 10.1056C449.575 10.4912 453.929 5.89116 455.121 5.51341C454.345 6.53345 452.107 8.17603 451.355 9.05241ZM462.948 5.40918C463.064 5.42957 461.371 7.13401 461.121 7.2709C459.806 7.98865 462.323 5.30246 462.948 5.40918ZM457.108 10.3583C458.096 9.77457 456.34 11.5485 455.701 11.9481C455.503 11.8351 456.957 10.4499 457.108 10.3583ZM24.4449 400.861C25.8791 400.636 25.5503 398.641 24.3868 400.148C24.3312 400.22 24.3804 400.867 24.4449 400.861ZM461.989 7.84994C461.001 8.43363 462.757 6.65967 463.396 6.26007C463.592 6.3749 462.138 7.76005 461.989 7.84994ZM26.3421 401.69C27.9251 401.033 26.2242 399.992 26.0226 400.07C25.2005 400.4 23.5797 402.865 23.2708 403.393C26.2553 400.326 25.5967 401.999 26.3421 401.69ZM31.1206 395.853C32.0998 394.699 28.9884 396.971 28.8007 397.856C29.3379 397.339 30.8427 396.182 31.1206 395.853ZM38.3001 390.225C38.9456 389.737 40.8389 388.256 40.9371 387.763C40.3189 388.392 38.3463 389.767 38.3001 390.225ZM40.2601 389.675C41.4707 389.136 40.8999 388.049 40.0559 389.284C40.0231 389.332 40.2105 389.689 40.2601 389.675ZM45.8174 385.258C46.7489 385.058 46.6803 383.569 45.6629 384.442C45.3622 384.703 45.716 385.276 45.8174 385.258ZM29.2212 401.867C30.2377 401.227 30.8206 399.593 28.8798 401.215C29.4559 400.528 30.0319 399.84 30.6081 399.153C27.836 401.022 28.782 401.711 28.0432 402.312C27.0101 403.15 26.4566 402.377 26.4566 401.978C26.0333 403.136 22.5973 406.237 20.6817 408.107C22.5925 406.716 25.7112 404.479 27.5394 403.043C28.0618 402.634 28.3666 402.011 28.8061 401.655C29.5114 401.086 29.1627 401.901 29.2178 401.87C29.2189 401.869 29.22 401.868 29.2212 401.867ZM52.7563 379.045C54.9224 377.82 53.0055 377.986 52.1221 379.057C52.0891 379.108 52.7026 379.076 52.7563 379.045ZM466.737 8.31266C463.999 10.1231 465.326 8.06845 460.925 13.3331C462.586 10.9128 460.711 12.8588 460.939 12.2796C461.124 11.8173 462.491 10.8336 461.471 11.1546C462.745 10.6582 466.787 6.84659 467.023 6.73934C467.022 6.7409 467.02 6.74245 467.018 6.74401C467.16 6.67912 467.611 7.73458 466.737 8.31266ZM40.3324 392.469C41.8743 392.972 40.6203 391.101 42.5838 390.902C43.0318 388.226 38.2246 394.819 36.5512 394.403C43.11 388.732 31.3455 397.179 37.275 394.724C33.0488 397.479 36.237 396.013 35.8468 396.73C35.4284 397.496 33.1205 399.146 33.5767 399.44C33.5778 399.439 33.579 399.438 33.5801 399.436C34.8384 398.256 36.0967 397.076 37.3549 395.896C35.3449 396.185 38.1925 394.081 39.6963 393.966C39.9083 393.467 40.1204 392.968 40.3324 392.469ZM32.3641 398.205C32.5078 398.111 35.1922 395.486 34.8606 395.479C34.3914 395.707 30.5474 399.394 32.3641 398.205ZM20.2499 409.423C21.2535 408.525 22.9498 407.297 23.211 406.49C22.2072 407.388 20.5106 408.617 20.2499 409.423ZM71.8877 363.126C72.9313 361.719 68.9307 365.175 70.3445 364.46C70.4136 364.425 71.8359 363.195 71.8877 363.126ZM43.0948 389.701C44.68 388.853 43.1531 388.388 42.4292 389.518C42.3876 389.583 43.0217 389.74 43.0948 389.701ZM464.891 10.1949C465.028 10.5219 461.367 13.496 460.748 14.0563C460.893 13.5077 464.734 9.81988 464.891 10.1949ZM19.324 411.94C22.1219 411.044 23.8975 407.579 24.2143 407.335C24.5299 407.093 24.4191 407.9 24.4958 407.85C24.6688 407.734 27.7804 404.878 27.9079 404.714C27.9977 404.595 26.935 404.556 27.4276 403.8C26.4437 405.249 20.5256 410.214 20.2825 410.543C20.0953 410.799 22.3546 409.813 19.3275 411.936C19.3264 411.937 19.3252 411.939 19.324 411.94ZM25.0633 406.788C24.0714 407.263 26.2461 405.257 26.855 404.863C28.2093 403.99 25.1885 406.725 25.0633 406.788ZM30.5468 402.244C30.8446 402.07 33.1548 400.079 33.117 399.649C31.7442 400.281 29.8685 402.636 30.5468 402.244ZM55.7528 379.53C56.3122 378.968 58.1093 377.709 58.0006 377.402C57.4404 377.964 55.6437 379.223 55.7528 379.53ZM454.696 22.8963C455.843 22.2046 453.644 24.3187 452.902 24.8231C452.732 24.7058 454.598 22.9551 454.696 22.8963ZM45.242 391.648C45.6521 391.403 52.6143 384.838 53.518 383.836C52.3893 384.544 45.3261 390.868 45.0805 391.238C45.0094 391.347 45.1879 391.677 45.242 391.648ZM29.9473 405.58C29.5918 406.496 28.8102 406.483 28.7233 406.552C27.8713 407.226 26.2651 408.804 26.3461 408.157C27.885 407.006 30.6566 403.757 29.9473 405.58ZM57.6015 380.57C59.9075 378.276 54.954 382.099 55.8731 381.897C55.9311 381.883 57.3633 380.807 57.6015 380.57ZM44.5336 392.458C44.2405 393.204 36.9164 399.37 35.7735 400.397C36.3546 398.985 37.5154 398.617 38.8676 397.357C39.2319 397.016 38.9489 396.9 38.9884 396.864C39.6222 396.277 39.3541 396.946 39.7533 396.594C40.005 396.37 44.9456 391.408 44.5336 392.458ZM29.7806 406.143C29.5529 406.69 25.1814 410.765 24.9574 410.875C23.2836 411.703 29.3761 406.388 29.7806 406.143ZM45.5798 392.309C45.3287 393.569 41.4496 396.363 43.6125 393.903C43.8202 393.67 45.0214 393.039 45.5798 392.309ZM57.8331 381.347C57.9671 381.257 60.5884 379.108 60.4701 378.885C60.0425 379.141 56.3141 382.377 57.8331 381.347ZM57.0805 383.136C57.1374 383.077 56.2317 383.257 57.4526 382.24C57.5547 382.156 58.0929 382.385 59.4476 380.907C59.7221 380.607 59.9544 379.926 59.9061 379.94C57.8039 380.71 54.2136 386.08 57.0805 383.136ZM29.9864 406.536C30.3756 406.487 30.242 407.501 29.4963 407.719C29.1759 407.811 29.326 407.14 29.9864 406.536ZM65.9641 374.329C64.7694 375.944 69.4169 371.87 69.5822 371.583C69.2668 371.529 66.0843 374.168 65.9641 374.329ZM454.483 27.2689C454.484 27.2679 454.486 27.2669 454.487 27.2658C453.194 28.3049 453.733 27.3699 453.668 27.4139C450.715 29.4056 451.919 29.3448 451.568 29.7802C450.818 30.7149 450.343 29.9008 449.115 31.5192C451.19 28.8943 449.115 31.0771 448.826 30.8953C447.655 30.1454 452.512 28.4271 453.547 27.119C453.692 26.9369 452.147 27.7494 452.503 27.2665C453.659 25.6975 459.443 23.2811 454.483 27.2689ZM29.1336 408.123C28.8256 408.929 24.2359 412.541 25.1683 411.267C25.3183 411.062 29.5899 406.942 29.1336 408.123ZM231.996 226.597C231.182 227.786 233.864 225.914 234.134 225.315C234.268 225.017 232.353 226.074 231.996 226.597ZM249.897 212.468C251.089 211.305 251.444 209.075 250.052 210.623C249.904 210.788 249.624 212.449 249.897 212.468ZM168.129 284.97C169.761 284.187 169.053 283.554 168.113 284.417C167.781 284.721 168.078 284.995 168.129 284.97ZM217.378 240.547C217.53 240.455 218.984 239.068 218.784 238.955C218.145 239.355 216.39 241.131 217.378 240.547ZM167.808 285.439C168.461 284.624 166.686 285.302 166.195 286.64C166.634 286.172 167.741 285.523 167.808 285.439ZM49.6441 391.46C50.0269 390.595 51.9206 389.051 52.919 388.064C53.3669 388.336 50.3283 390.723 49.6441 391.46ZM244.261 216.766C245.196 215.449 242.492 217.49 243.035 217.631C243.084 217.621 244.225 216.818 244.261 216.766ZM126.553 322.583C127.205 321.595 124.231 323.726 125.327 323.449C125.378 323.432 126.517 322.638 126.553 322.583ZM114.627 333.068C115.341 332.562 118.076 330.062 116.808 330.809C116.612 330.925 114.493 332.82 114.627 333.068ZM451.737 30.1143C452.43 30.1849 450.327 31.9099 449.977 32.1029C449.839 32.1772 450.835 30.0235 451.737 30.1143ZM176.577 277.487C177.203 276.838 179.019 275.37 179.144 274.894C178.363 275.671 175.997 277.283 176.577 277.487ZM238.92 221.569C240.315 221.069 242.021 219.461 241.101 219.304C239.208 221.071 241.779 219.579 238.92 221.569ZM163.904 289.759C164.469 289.308 164.41 288.416 164.327 288.446C163.536 288.734 163.189 290.034 163.904 289.759ZM203.761 253.162C203.993 253.358 205.621 251.711 205.262 251.774C205.143 251.793 203.574 253.004 203.761 253.162ZM72.2727 371.354C73.2437 370.85 71.0173 373.211 70.0918 373.613C69.4376 373.58 72.1521 371.42 72.2727 371.354ZM148.915 302.993C149.133 303.396 151.652 300.794 150.346 301.47C150.019 301.64 148.843 302.857 148.915 302.993ZM123.549 326.507C124.996 324.492 117.175 331.013 119.607 329.719C119.781 329.626 123.422 326.682 123.549 326.507ZM110.967 337.369C111.317 337.133 112.163 338.386 110.49 339.113C110.271 339.209 110.797 338.204 110.598 338.261C110.482 338.296 107.543 340.654 107.438 340.796C107.326 340.95 107.81 341.16 107.705 341.327C107.587 341.514 105.583 342.748 104.677 343.556C102.972 345.077 103.056 345.54 102.917 345.666C102.513 346.033 101.641 346.435 100.818 347.175C96.6702 350.907 90.55 356.862 86.6941 359.188C89.849 356.811 92.3973 354.035 95.2359 351.335C94.9404 352.722 99.0916 347.005 96.7296 350.422C97.9739 349.023 109.825 338.148 110.963 337.372C110.964 337.371 110.965 337.37 110.967 337.369ZM255.064 208.39C254.645 209.454 258.47 205.862 258.406 205.124C257.836 205.526 255.119 208.262 255.064 208.39ZM237.897 225.495C237.593 225.887 237.918 226.939 235.678 228.27C235.677 228.271 235.675 228.273 235.673 228.275C235.019 228.664 235.489 227.914 235.329 227.94C235.268 227.947 233.203 229.135 234.589 227.782C236.701 225.718 235.293 228.15 236.47 227.106C236.613 226.978 238.466 224.585 238.258 224.612C238.236 224.614 237.646 225.298 237.503 225.36C236.963 225.596 236.957 225.182 236.888 225.223C236.671 225.367 233.524 228.91 232.704 229.022C232.439 229.06 237.956 223.637 238.232 223.493C238.407 223.402 238.926 224.101 239.13 224.032C239.234 223.996 241.329 221.677 241.682 221.466C241.785 221.405 241.868 221.363 241.931 221.335C241.402 221.45 243.509 219.582 243.647 219.865C243.69 219.986 242.202 221.23 242.137 221.261C242.108 221.275 242.081 221.284 242.057 221.294C242.574 221.269 237.684 225.643 239.063 225.058C237.826 226.527 238.786 224.347 237.897 225.495ZM231.455 232.003C231.54 231.804 231.625 231.605 231.71 231.406C229.383 233.798 226.232 236.039 223.381 238.605C222.658 239.256 223.863 238.922 222.812 239.662C221.971 240.254 220.784 240.625 221.12 240.168C221.202 240.056 222.974 238.916 223.726 238.194C225.944 236.063 225.047 236.227 225.172 236.097C225.31 235.954 226.974 234.911 227.75 234.194C229.7 232.389 230.407 231.359 233.363 229.219C232.015 230.853 233.326 230.595 231.455 232.003ZM138.47 314.198C138.577 314.506 136.778 315.764 136.219 316.326C136.11 316.018 137.911 314.76 138.47 314.198ZM380.217 97.47C380.385 96.6554 376.573 99.9172 377.831 99.3392C378.109 99.2116 379.746 97.8886 380.217 97.47ZM363.257 112.308C362.849 112.858 365.097 111.316 364.837 111.036C364.753 110.947 363.31 112.237 363.257 112.308ZM199.12 260.409C199.035 260.505 197.589 261.657 197.529 261.677C196.269 262.105 200.99 258.269 199.12 260.409ZM343.29 131.07C344.813 129.266 339.483 133.867 341.359 132.736C341.452 132.679 343.217 131.156 343.29 131.07ZM336.073 137.677C336.478 137.289 338.437 135.745 338.361 135.611C338.235 135.397 336.005 137.178 336.073 137.677ZM164.789 291.471C165.362 291.704 162.639 293.585 161.836 294.4C161.263 294.167 163.987 292.286 164.789 291.471ZM180.475 277.926C170.475 287.503 171.949 284.579 180.907 277.173C181.158 277.428 181.106 277.322 180.475 277.926ZM167.25 289.723C167.386 289.121 168.625 288.149 169.434 287.461C169.458 287.773 167.777 289.163 167.25 289.723ZM385.17 94.0462C384.826 94.9613 381.596 97.1176 381.98 96.5227C382.072 96.3866 385.242 93.649 385.17 94.0462ZM198.575 261.538C199.177 261.725 195.938 264.339 195.621 264.462C194.344 264.96 198.405 261.852 198.575 261.538ZM150.497 304.955C150.235 305.761 148.539 306.992 147.538 307.884C147.75 307.206 149.646 305.71 150.497 304.955ZM157.917 298.734C157.865 298.802 156.449 300.023 156.374 300.065C154.958 300.781 158.962 297.324 157.917 298.734ZM458.911 28.7615C458.874 28.8133 457.803 29.7396 457.756 29.7607C456.544 30.3028 459.76 27.5242 458.911 28.7615Z" fill="black"/>
</svg>
